<svg width="54" height="58" viewBox="0 0 54 58" fill="none" xmlns="http://www.w3.org/2000/svg">
<path d="M52.8557 52.8247L32.567 3.7732C31.4227 1.23711 29.7216 0 27.4794 0H25.6856C23.4433 0 21.7423 1.23711 20.5979 3.7732L11.768 25.1443H5.08763C3.09278 25.1598 1.46907 26.768 1.45361 28.7784V28.8247C1.46907 30.8196 3.09278 32.4433 5.08763 32.4588H8.67526L0.247423 52.8247C0.0927835 53.2732 0 53.7371 0 54.2165C0 55.3608 0.35567 56.2577 0.989691 56.9536C1.62371 57.6495 2.53608 57.9897 3.68041 57.9897C4.43814 57.9742 5.16495 57.7423 5.76804 57.2938C6.41753 56.8454 6.86598 56.1959 7.22165 55.4536L16.5 32.4433H22.933C24.9278 32.4278 26.5515 30.8196 26.567 28.8093V28.7165C26.5515 26.7216 24.9278 25.0979 22.933 25.0825H19.5L26.5825 7.43814L45.8814 55.4381C46.2371 56.1804 46.6856 56.8299 47.3351 57.2784C47.9381 57.7268 48.6804 57.9588 49.4227 57.9742C50.567 57.9742 51.4639 57.634 52.1134 56.9381C52.7629 56.2423 53.1031 55.3454 53.1031 54.201C53.1186 53.7371 53.0412 53.2577 52.8557 52.8247Z" fill="#BBAACC"/>
</svg>
