<svg width="82" height="82" viewBox="0 0 82 82" fill="none" xmlns="http://www.w3.org/2000/svg">
<path fill-rule="evenodd" clip-rule="evenodd" d="M41 0C63.6402 0 82 18.3598 82 41C82 63.6402 63.6402 82 41 82C18.3598 82 0 63.6402 0 41C0 18.3598 18.3598 0 41 0Z" fill="#1E1E1E"/>
<path d="M41.615 58.138C28.5032 58.138 17.876 54.3496 17.876 49.2738C17.876 46.6252 20.7706 44.239 25.4036 42.558C29.0198 44.8786 35.0878 46.0676 41.9676 46.0676C48.6834 46.0676 54.6202 44.6162 58.2692 42.394C62.6398 44.0586 65.354 46.3792 65.354 48.9376C65.354 54.0216 54.7268 58.138 41.615 58.138Z" fill="white"/>
<path d="M41.7544 44.9277C31.816 44.9277 23.7554 41.8117 23.7554 37.9659C23.7554 35.8339 26.24 33.9233 30.135 32.6523C32.9148 34.1037 37.0804 35.0303 41.7544 35.0303C46.4284 35.0303 50.594 34.1037 53.3738 32.6523C57.277 33.9315 59.7534 35.8339 59.7534 37.9659C59.7616 41.8117 51.701 44.9277 41.7544 44.9277Z" fill="white"/>
<path d="M41.6893 33.8743C34.0059 33.8743 27.7739 31.2995 27.7739 28.1343C27.7739 24.9691 34.0059 22.3943 41.6893 22.3943C49.3727 22.3943 55.6047 24.9691 55.6047 28.1343C55.6047 31.2995 49.3727 33.8743 41.6893 33.8743Z" fill="white"/>
</svg>
