<svg width="647" height="519" viewBox="0 0 647 519" fill="none" xmlns="http://www.w3.org/2000/svg">
<path fill-rule="evenodd" clip-rule="evenodd" d="M321.2 402.102L428.088 276.078L428.06 276.092L321.2 331.348V402.102ZM407.275 292.486L323.948 335.572V390.73L407.275 292.486Z" fill="#B8FBF6"/>
<path fill-rule="evenodd" clip-rule="evenodd" d="M214.336 276.106L214.313 276.078L321.195 331.344L321.2 331.348V402.102L321.192 402.092L214.336 276.106ZM235.087 292.486L318.453 390.777V335.593L318.417 335.574L235.087 292.486Z" fill="#87A9F0"/>
<path fill-rule="evenodd" clip-rule="evenodd" d="M214.318 261.461L321.2 112.348V219.211L214.313 261.469L214.318 261.461ZM318.453 217.625V125.368L226.175 254.106L318.453 217.625Z" fill="#CFC3FB"/>
<path fill-rule="evenodd" clip-rule="evenodd" d="M214.293 261.471L214.318 261.461L321.2 219.214V315.547L214.357 261.504L214.293 261.471ZM223.389 260.549L318.453 308.634V222.973L223.389 260.549Z" fill="#87A9F0"/>
<path fill-rule="evenodd" clip-rule="evenodd" d="M428.083 261.461L321.2 219.214V315.547L428.044 261.504L428.108 261.471L428.083 261.461ZM323.948 308.634L419.013 260.549L323.948 222.973V308.634Z" fill="#CFC3FB"/>
<path fill-rule="evenodd" clip-rule="evenodd" d="M321.2 112.348V219.211L428.088 261.469L428.083 261.461L321.2 112.348ZM323.948 217.625L416.225 254.106L323.948 125.368V217.625Z" fill="#B8FBF6"/>
<path fill-rule="evenodd" clip-rule="evenodd" d="M177.972 243.048L183.602 229.581L175.989 237.568L142.862 272.322H150.049L150.665 271.68C156.988 265.088 169.609 251.838 177.736 243.295L177.972 243.048Z" fill="#B8FBF6"/>
<path fill-rule="evenodd" clip-rule="evenodd" d="M177.963 301.25L183.586 314.54L145.765 275.346L142.862 272.322H150.04L150.656 272.957C156.978 279.471 169.599 292.563 177.727 301.005L177.963 301.25Z" fill="#87A9F0"/>
<path fill-rule="evenodd" clip-rule="evenodd" d="M464.437 243.048L458.807 229.581L466.42 237.568L499.547 272.322H492.36L491.743 271.68C485.422 265.088 472.8 251.838 464.672 243.295L464.437 243.048Z" fill="#CFC3FB"/>
<path fill-rule="evenodd" clip-rule="evenodd" d="M464.447 301.25L458.823 314.54L496.645 275.346L499.547 272.322H492.37L491.753 272.957C485.431 279.471 472.81 292.563 464.682 301.005L464.447 301.25Z" fill="#B8FBF6"/>
</svg>
