<svg width="57" height="79" viewBox="0 0 57 79" fill="none" xmlns="http://www.w3.org/2000/svg">
<path fill-rule="evenodd" clip-rule="evenodd" d="M28.4664 48.3926L5.54845 35.2993C2.06195 39.8112 0 45.3962 0 51.4428C0 66.4351 12.6763 78.5888 28.3134 78.5888C28.3643 78.5888 28.4154 78.5886 28.4664 78.5883V48.3926Z" fill="#47A2F8"/>
<path fill-rule="evenodd" clip-rule="evenodd" d="M28.4663 48.3926L51.3842 35.2993C54.8707 39.8112 56.9327 45.3962 56.9327 51.4427C56.9327 66.4351 44.2564 78.5888 28.6194 78.5888C28.5682 78.5888 28.5173 78.5888 28.4663 78.5885V48.3926Z" fill="#7EC6F9"/>
<path d="M28.4663 0L8.64697 30.3795L28.4663 19.1306V0Z" fill="#47A2F8"/>
<path d="M28.4663 0L48.2857 30.3795L28.4663 19.1306V0Z" fill="#7EC6F9"/>
<path d="M28.4663 41.8578L8.64697 30.3794L28.4663 19.1306V41.8578Z" fill="#7EC6F9"/>
<path d="M28.4663 41.8578L48.2857 30.3794L28.4663 19.1306V41.8578Z" fill="#D2ECFD"/>
<path d="M28.4663 48.4387L51.4231 35.2769L28.4663 78.5886V48.4387Z" fill="#D2ECFD"/>
<path d="M28.4665 48.4387L5.50977 35.2769L28.4665 78.5886V48.4387Z" fill="#7EC6F9"/>
</svg>
