<svg width="476" height="455" viewBox="0 0 476 455" fill="none" xmlns="http://www.w3.org/2000/svg">
<g clip-path="url(#clip0_5_42)">
<g filter="url(#filter0_d_5_42)">
<path d="M455.5 2H20C11.1634 2 4 9.16344 4 18V433C4 441.837 11.1634 449 20 449H455.5C464.337 449 471.5 441.837 471.5 433V18C471.5 9.16344 464.337 2 455.5 2Z" fill="white"/>
<path d="M455.5 2.5H20C11.4396 2.5 4.5 9.43959 4.5 18V433C4.5 441.56 11.4396 448.5 20 448.5H455.5C464.06 448.5 471 441.56 471 433V18C471 9.43959 464.06 2.5 455.5 2.5Z" stroke="#F9F9F9"/>
<path d="M34.3116 44H32.3428L35.9274 33.8182H38.2043L41.7938 44H39.8251L37.1056 35.9062H37.0261L34.3116 44ZM34.3762 40.0078H39.7455V41.4893H34.3762V40.0078ZM48.0042 36.6172C47.9578 36.183 47.7623 35.8449 47.4176 35.603C47.0762 35.361 46.6321 35.2401 46.0852 35.2401C45.7007 35.2401 45.371 35.2981 45.0959 35.4141C44.8208 35.5301 44.6103 35.6875 44.4645 35.8864C44.3186 36.0852 44.2441 36.3123 44.2407 36.5675C44.2407 36.7796 44.2888 36.9635 44.3849 37.1193C44.4844 37.2751 44.6186 37.4077 44.7876 37.517C44.9567 37.6231 45.1439 37.7126 45.3494 37.7855C45.5549 37.8584 45.7621 37.9197 45.9709 37.9695L46.9254 38.2081C47.3099 38.2976 47.6794 38.4186 48.0341 38.571C48.392 38.7235 48.7119 38.9157 48.9936 39.1477C49.2786 39.3797 49.504 39.6598 49.6697 39.9879C49.8354 40.3161 49.9183 40.7005 49.9183 41.1413C49.9183 41.7379 49.7658 42.2633 49.4609 42.7173C49.156 43.1681 48.7152 43.5211 48.1385 43.7763C47.5651 44.0282 46.8707 44.1541 46.0554 44.1541C45.2632 44.1541 44.5755 44.0315 43.9922 43.7862C43.4121 43.541 42.9581 43.183 42.6299 42.7124C42.3051 42.2417 42.1295 41.6683 42.103 40.9922H43.9176C43.9441 41.3468 44.0535 41.6418 44.2457 41.8771C44.438 42.1125 44.6882 42.2881 44.9964 42.4041C45.308 42.5201 45.656 42.5781 46.0405 42.5781C46.4415 42.5781 46.7928 42.5185 47.0944 42.3991C47.3994 42.2765 47.638 42.1075 47.8103 41.892C47.9827 41.6733 48.0705 41.4181 48.0738 41.1264C48.0705 40.8613 47.9926 40.6425 47.8402 40.4702C47.6877 40.2945 47.4739 40.1487 47.1988 40.0327C46.9271 39.9134 46.6089 39.8073 46.2443 39.7145L45.0859 39.4162C44.2474 39.2008 43.5845 38.8743 43.0973 38.4368C42.6134 37.996 42.3714 37.411 42.3714 36.6818C42.3714 36.0819 42.5338 35.5566 42.8586 35.1058C43.1868 34.6551 43.6326 34.3054 44.196 34.0568C44.7594 33.8049 45.3975 33.679 46.1101 33.679C46.8326 33.679 47.4657 33.8049 48.0092 34.0568C48.5561 34.3054 48.9853 34.6518 49.2969 35.0959C49.6084 35.5367 49.7692 36.0438 49.7791 36.6172H48.0042ZM56.596 36.6172C56.5496 36.183 56.3541 35.8449 56.0094 35.603C55.668 35.361 55.2239 35.2401 54.677 35.2401C54.2925 35.2401 53.9628 35.2981 53.6877 35.4141C53.4126 35.5301 53.2021 35.6875 53.0563 35.8864C52.9104 36.0852 52.8359 36.3123 52.8325 36.5675C52.8325 36.7796 52.8806 36.9635 52.9767 37.1193C53.0761 37.2751 53.2104 37.4077 53.3794 37.517C53.5485 37.6231 53.7357 37.7126 53.9412 37.7855C54.1467 37.8584 54.3538 37.9197 54.5627 37.9695L55.5172 38.2081C55.9017 38.2976 56.2712 38.4186 56.6259 38.571C56.9838 38.7235 57.3037 38.9157 57.5854 39.1477C57.8704 39.3797 58.0958 39.6598 58.2615 39.9879C58.4272 40.3161 58.5101 40.7005 58.5101 41.1413C58.5101 41.7379 58.3576 42.2633 58.0527 42.7173C57.7478 43.1681 57.307 43.5211 56.7303 43.7763C56.1569 44.0282 55.4625 44.1541 54.6472 44.1541C53.855 44.1541 53.1673 44.0315 52.584 43.7862C52.0039 43.541 51.5499 43.183 51.2217 42.7124C50.8969 42.2417 50.7213 41.6683 50.6948 40.9922H52.5094C52.5359 41.3468 52.6453 41.6418 52.8375 41.8771C53.0297 42.1125 53.28 42.2881 53.5882 42.4041C53.8998 42.5201 54.2478 42.5781 54.6323 42.5781C55.0333 42.5781 55.3846 42.5185 55.6862 42.3991C55.9912 42.2765 56.2298 42.1075 56.4021 41.892C56.5745 41.6733 56.6623 41.4181 56.6656 41.1264C56.6623 40.8613 56.5844 40.6425 56.432 40.4702C56.2795 40.2945 56.0657 40.1487 55.7906 40.0327C55.5189 39.9134 55.2007 39.8073 54.8361 39.7145L53.6777 39.4162C52.8392 39.2008 52.1763 38.8743 51.6891 38.4368C51.2052 37.996 50.9632 37.411 50.9632 36.6818C50.9632 36.0819 51.1256 35.5566 51.4504 35.1058C51.7786 34.6551 52.2244 34.3054 52.7878 34.0568C53.3512 33.8049 53.9893 33.679 54.7019 33.679C55.4244 33.679 56.0574 33.8049 56.601 34.0568C57.1479 34.3054 57.5771 34.6518 57.8886 35.0959C58.2002 35.5367 58.361 36.0438 58.3709 36.6172H56.596ZM59.6545 44V33.8182H66.2766V35.3643H61.4989V38.1286H65.9336V39.6747H61.4989V42.4538H66.3164V44H59.6545ZM67.2109 35.3643V33.8182H75.3345V35.3643H72.1875V44H70.3579V35.3643H67.2109ZM86.1942 37.0696C86.1114 36.8011 85.997 36.5608 85.8512 36.3487C85.7087 36.1333 85.5363 35.9493 85.3341 35.7969C85.1353 35.6444 84.9066 35.5301 84.6481 35.4538C84.3895 35.3743 84.1078 35.3345 83.8029 35.3345C83.256 35.3345 82.7688 35.4721 82.3412 35.7472C81.9137 36.0223 81.5773 36.4266 81.332 36.9602C81.0901 37.4905 80.9691 38.1368 80.9691 38.8991C80.9691 39.6681 81.0901 40.3194 81.332 40.853C81.574 41.3866 81.9104 41.7926 82.3412 42.071C82.7721 42.3461 83.2726 42.4837 83.8427 42.4837C84.3597 42.4837 84.8072 42.3842 85.185 42.1854C85.5661 41.9865 85.8595 41.7048 86.065 41.3402C86.2705 40.9723 86.3732 40.5414 86.3732 40.0476L86.7908 40.1122H84.0266V38.6705H88.158V39.8935C88.158 40.7652 87.9724 41.5192 87.6012 42.1555C87.23 42.7919 86.7196 43.2824 86.0699 43.6271C85.4203 43.9685 84.6746 44.1392 83.8327 44.1392C82.8947 44.1392 82.0711 43.9287 81.3618 43.5078C80.6559 43.0836 80.104 42.482 79.7063 41.7031C79.3119 40.9209 79.1147 39.9929 79.1147 38.919C79.1147 38.0971 79.2307 37.3629 79.4627 36.7166C79.698 36.0703 80.0261 35.5218 80.4471 35.071C80.868 34.617 81.3618 34.2723 81.9286 34.0369C82.4954 33.7983 83.1118 33.679 83.778 33.679C84.3415 33.679 84.8668 33.7618 85.354 33.9276C85.8412 34.09 86.2738 34.322 86.6516 34.6236C87.0328 34.9252 87.346 35.2831 87.5912 35.6974C87.8365 36.1117 87.9973 36.5691 88.0735 37.0696H86.1942ZM89.4416 44V33.8182H96.0637V35.3643H91.286V38.1286H95.7207V39.6747H91.286V42.4538H96.1035V44H89.4416ZM105.813 33.8182V44H104.172L99.3744 37.0646H99.2899V44H97.4455V33.8182H99.096L103.889 40.7585H103.978V33.8182H105.813ZM107.323 44V33.8182H113.945V35.3643H109.167V38.1286H113.602V39.6747H109.167V42.4538H113.985V44H107.323ZM115.327 44V33.8182H119.145C119.927 33.8182 120.583 33.9541 121.113 34.2259C121.647 34.4976 122.05 34.8788 122.322 35.3693C122.597 35.8565 122.734 36.425 122.734 37.0746C122.734 37.7275 122.595 38.2943 122.317 38.7749C122.041 39.2521 121.635 39.6217 121.099 39.8835C120.562 40.142 119.902 40.2713 119.12 40.2713H116.4V38.7401H118.871C119.329 38.7401 119.703 38.6771 119.995 38.5511C120.287 38.4219 120.502 38.2346 120.641 37.9893C120.784 37.7408 120.855 37.4358 120.855 37.0746C120.855 36.7133 120.784 36.4051 120.641 36.1499C120.499 35.8913 120.282 35.6958 119.99 35.5632C119.698 35.4273 119.322 35.3594 118.861 35.3594H117.171V44H115.327ZM120.586 39.3864L123.107 44H121.049L118.573 39.3864H120.586ZM125.24 44H123.271L126.855 33.8182H129.132L132.722 44H130.753L128.034 35.9062H127.954L125.24 44ZM125.304 40.0078H130.673V41.4893H125.304V40.0078ZM131.885 35.3643V33.8182H140.009V35.3643H136.862V44H135.032V35.3643H131.885ZM141.075 44V33.8182H147.697V35.3643H142.919V38.1286H147.354V39.6747H142.919V42.4538H147.737V44H141.075ZM152.529 44H149.078V33.8182H152.598C153.609 33.8182 154.478 34.022 155.203 34.4297C155.933 34.834 156.493 35.4157 156.884 36.1747C157.275 36.9337 157.471 37.8419 157.471 38.8991C157.471 39.9598 157.273 40.8712 156.879 41.6335C156.488 42.3958 155.923 42.9808 155.184 43.3885C154.448 43.7962 153.563 44 152.529 44ZM150.923 42.4041H152.439C153.149 42.4041 153.74 42.2749 154.214 42.0163C154.688 41.7545 155.044 41.3651 155.283 40.848C155.522 40.3277 155.641 39.678 155.641 38.8991C155.641 38.1203 155.522 37.474 155.283 36.9602C155.044 36.4432 154.691 36.0571 154.224 35.8018C153.76 35.5433 153.183 35.4141 152.494 35.4141H150.923V42.4041Z" fill="#7A7A7A"/>
<path d="M49.301 88.0909V123H42.9772V94.2443H42.7726L34.6079 99.4602V93.6648L43.284 88.0909H49.301ZM56.1647 123V118.432L68.284 106.551C69.4431 105.381 70.409 104.341 71.1817 103.432C71.9544 102.523 72.534 101.642 72.9204 100.79C73.3067 99.9375 73.4999 99.0284 73.4999 98.0625C73.4999 96.9602 73.2499 96.017 72.7499 95.233C72.2499 94.4375 71.5624 93.8239 70.6874 93.392C69.8124 92.9602 68.8181 92.7443 67.7044 92.7443C66.5567 92.7443 65.551 92.983 64.6874 93.4602C63.8238 93.9261 63.1533 94.5909 62.676 95.4545C62.2101 96.3182 61.9772 97.3466 61.9772 98.5398H55.9601C55.9601 96.3239 56.4658 94.3977 57.4772 92.7614C58.4885 91.125 59.8806 89.858 61.6533 88.9602C63.4374 88.0625 65.4829 87.6136 67.7897 87.6136C70.1306 87.6136 72.1874 88.0511 73.9601 88.9261C75.7329 89.8011 77.1079 91 78.0851 92.5227C79.0738 94.0455 79.5681 95.7841 79.5681 97.7386C79.5681 99.0455 79.3181 100.33 78.8181 101.591C78.3181 102.852 77.4374 104.25 76.176 105.784C74.926 107.318 73.1704 109.176 70.909 111.358L64.8919 117.477V117.716H80.0965V123H56.1647ZM96.3863 123.477C93.8522 123.477 91.6022 123.051 89.6363 122.199C87.6817 121.347 86.1476 120.182 85.034 118.705C83.9317 117.216 83.3863 115.528 83.3976 113.642C83.3863 112.176 83.7044 110.83 84.3522 109.602C84.9999 108.375 85.8749 107.352 86.9772 106.534C88.0908 105.705 89.3294 105.176 90.6931 104.949V104.71C88.8976 104.312 87.4431 103.398 86.3294 101.966C85.2272 100.523 84.6817 98.858 84.6931 96.9716C84.6817 95.1761 85.1817 93.5739 86.1931 92.1648C87.2044 90.7557 88.5908 89.6477 90.3522 88.8409C92.1135 88.0227 94.1249 87.6136 96.3863 87.6136C98.6249 87.6136 100.619 88.0227 102.369 88.8409C104.131 89.6477 105.517 90.7557 106.528 92.1648C107.551 93.5739 108.062 95.1761 108.062 96.9716C108.062 98.858 107.5 100.523 106.375 101.966C105.261 103.398 103.824 104.312 102.062 104.71V104.949C103.426 105.176 104.653 105.705 105.744 106.534C106.847 107.352 107.722 108.375 108.369 109.602C109.028 110.83 109.358 112.176 109.358 113.642C109.358 115.528 108.801 117.216 107.688 118.705C106.574 120.182 105.04 121.347 103.085 122.199C101.142 123.051 98.909 123.477 96.3863 123.477ZM96.3863 118.602C97.6931 118.602 98.8294 118.381 99.7954 117.938C100.761 117.483 101.511 116.847 102.045 116.028C102.58 115.21 102.852 114.267 102.864 113.199C102.852 112.085 102.563 111.102 101.994 110.25C101.438 109.386 100.67 108.71 99.6931 108.222C98.7272 107.733 97.6249 107.489 96.3863 107.489C95.1363 107.489 94.0226 107.733 93.0454 108.222C92.0681 108.71 91.2954 109.386 90.7272 110.25C90.1704 111.102 89.8976 112.085 89.909 113.199C89.8976 114.267 90.159 115.21 90.6931 116.028C91.2272 116.835 91.9772 117.466 92.9431 117.92C93.9204 118.375 95.0681 118.602 96.3863 118.602ZM96.3863 102.699C97.4544 102.699 98.3976 102.483 99.2158 102.051C100.045 101.619 100.699 101.017 101.176 100.244C101.653 99.4716 101.898 98.5795 101.909 97.5682C101.898 96.5682 101.659 95.6932 101.193 94.9432C100.727 94.1818 100.08 93.5966 99.2499 93.1875C98.4204 92.767 97.4658 92.5568 96.3863 92.5568C95.284 92.5568 94.3124 92.767 93.4715 93.1875C92.6419 93.5966 91.9942 94.1818 91.5283 94.9432C91.0738 95.6932 90.8522 96.5682 90.8635 97.5682C90.8522 98.5795 91.0794 99.4716 91.5454 100.244C92.0226 101.006 92.676 101.608 93.5056 102.051C94.3465 102.483 95.3067 102.699 96.3863 102.699ZM119.243 118.227L119.021 120.102C118.862 121.534 118.578 122.989 118.169 124.466C117.771 125.955 117.351 127.324 116.908 128.574C116.464 129.824 116.107 130.807 115.834 131.523H111.675C111.834 130.83 112.05 129.886 112.322 128.693C112.607 127.5 112.879 126.159 113.141 124.67C113.402 123.182 113.578 121.67 113.669 120.136L113.788 118.227H119.243ZM124.24 123L139.087 93.6136V93.375H121.854V88.0909H145.632V93.4943L130.803 123H124.24ZM149.474 123V88.0909H155.798V104.131H156.224L169.844 88.0909H177.565L164.065 103.756L177.685 123H170.082L159.668 108.034L155.798 112.602V123H149.474Z" fill="#242424"/>
<mask id="mask0_5_42" style="mask-type:alpha" maskUnits="userSpaceOnUse" x="16" y="107" width="441" height="370">
<path d="M16.75 107V477" stroke="black" stroke-width="1.5"/>
<path d="M20 107V477" stroke="black" stroke-width="1.5"/>
<path d="M24 107V477" stroke="black" stroke-width="1.5"/>
<path d="M28 107V477" stroke="black" stroke-width="1.5"/>
<path d="M32 107V477" stroke="black" stroke-width="1.5"/>
<path d="M36 107V477" stroke="black" stroke-width="1.5"/>
<path d="M40 107V477" stroke="black" stroke-width="1.5"/>
<path d="M44 107V477" stroke="black" stroke-width="1.5"/>
<path d="M48 107V477" stroke="black" stroke-width="1.5"/>
<path d="M52 107V477" stroke="black" stroke-width="1.5"/>
<path d="M56 107V477" stroke="black" stroke-width="1.5"/>
<path d="M60 107V477" stroke="black" stroke-width="1.5"/>
<path d="M64 107V477" stroke="black" stroke-width="1.5"/>
<path d="M68 107V477" stroke="black" stroke-width="1.5"/>
<path d="M72 107V477" stroke="black" stroke-width="1.5"/>
<path d="M76 107V477" stroke="black" stroke-width="1.5"/>
<path d="M80 107V477" stroke="black" stroke-width="1.5"/>
<path d="M84 107V477" stroke="black" stroke-width="1.5"/>
<path d="M88 107V477" stroke="black" stroke-width="1.5"/>
<path d="M92 107V477" stroke="black" stroke-width="1.5"/>
<path d="M96 107V477" stroke="black" stroke-width="1.5"/>
<path d="M100 107V477" stroke="black" stroke-width="1.5"/>
<path d="M104 107V477" stroke="black" stroke-width="1.5"/>
<path d="M108 107V477" stroke="black" stroke-width="1.5"/>
<path d="M112 107V477" stroke="black" stroke-width="1.5"/>
<path d="M116 107V477" stroke="black" stroke-width="1.5"/>
<path d="M120 107V477" stroke="black" stroke-width="1.5"/>
<path d="M124 107V477" stroke="black" stroke-width="1.5"/>
<path d="M128 107V477" stroke="black" stroke-width="1.5"/>
<path d="M132 107V477" stroke="black" stroke-width="1.5"/>
<path d="M136 107V477" stroke="black" stroke-width="1.5"/>
<path d="M140 107V477" stroke="black" stroke-width="1.5"/>
<path d="M144 107V477" stroke="black" stroke-width="1.5"/>
<path d="M148 107V477" stroke="black" stroke-width="1.5"/>
<path d="M152 107V477" stroke="black" stroke-width="1.5"/>
<path d="M156 107V477" stroke="black" stroke-width="1.5"/>
<path d="M160 107V477" stroke="black" stroke-width="1.5"/>
<path d="M164 107V477" stroke="black" stroke-width="1.5"/>
<path d="M168 107V477" stroke="black" stroke-width="1.5"/>
<path d="M172 107V477" stroke="black" stroke-width="1.5"/>
<path d="M176 107V477" stroke="black" stroke-width="1.5"/>
<path d="M180 107V477" stroke="black" stroke-width="1.5"/>
<path d="M184 107V477" stroke="black" stroke-width="1.5"/>
<path d="M188 107V477" stroke="black" stroke-width="1.5"/>
<path d="M192 107V477" stroke="black" stroke-width="1.5"/>
<path d="M196 107V477" stroke="black" stroke-width="1.5"/>
<path d="M200 107V477" stroke="black" stroke-width="1.5"/>
<path d="M204 107V477" stroke="black" stroke-width="1.5"/>
<path d="M208 107V477" stroke="black" stroke-width="1.5"/>
<path d="M212 107V477" stroke="black" stroke-width="1.5"/>
<path d="M216 107V477" stroke="black" stroke-width="1.5"/>
<path d="M220 107V477" stroke="black" stroke-width="1.5"/>
<path d="M224 107V477" stroke="black" stroke-width="1.5"/>
<path d="M228 107V477" stroke="black" stroke-width="1.5"/>
<path d="M232 107V477" stroke="black" stroke-width="1.5"/>
<path d="M236 107V477" stroke="black" stroke-width="1.5"/>
<path d="M240 107V477" stroke="black" stroke-width="1.5"/>
<path d="M244 107V477" stroke="black" stroke-width="1.5"/>
<path d="M248 107V477" stroke="black" stroke-width="1.5"/>
<path d="M252 107V477" stroke="black" stroke-width="1.5"/>
<path d="M256 107V477" stroke="black" stroke-width="1.5"/>
<path d="M260 107V477" stroke="black" stroke-width="1.5"/>
<path d="M264 107V477" stroke="black" stroke-width="1.5"/>
<path d="M268 107V477" stroke="black" stroke-width="1.5"/>
<path d="M272 107V477" stroke="black" stroke-width="1.5"/>
<path d="M276 107V477" stroke="black" stroke-width="1.5"/>
<path d="M280 107V477" stroke="black" stroke-width="1.5"/>
<path d="M284 107V477" stroke="black" stroke-width="1.5"/>
<path d="M288 107V477" stroke="black" stroke-width="1.5"/>
<path d="M292 107V477" stroke="black" stroke-width="1.5"/>
<path d="M296 107V477" stroke="black" stroke-width="1.5"/>
<path d="M300 107V477" stroke="black" stroke-width="1.5"/>
<path d="M304 107V477" stroke="black" stroke-width="1.5"/>
<path d="M308 107V477" stroke="black" stroke-width="1.5"/>
<path d="M312 107V477" stroke="black" stroke-width="1.5"/>
<path d="M316 107V477" stroke="black" stroke-width="1.5"/>
<path d="M320 107V477" stroke="black" stroke-width="1.5"/>
<path d="M324 107V477" stroke="black" stroke-width="1.5"/>
<path d="M328 107V477" stroke="black" stroke-width="1.5"/>
<path d="M332 107V477" stroke="black" stroke-width="1.5"/>
<path d="M336 107V477" stroke="black" stroke-width="1.5"/>
<path d="M340 107V477" stroke="black" stroke-width="1.5"/>
<path d="M344 107V477" stroke="black" stroke-width="1.5"/>
<path d="M348 107V477" stroke="black" stroke-width="1.5"/>
<path d="M352 107V477" stroke="black" stroke-width="1.5"/>
<path d="M356 107V477" stroke="black" stroke-width="1.5"/>
<path d="M360 107V477" stroke="black" stroke-width="1.5"/>
<path d="M364 107V477" stroke="black" stroke-width="1.5"/>
<path d="M368 107V477" stroke="black" stroke-width="1.5"/>
<path d="M372 107V477" stroke="black" stroke-width="1.5"/>
<path d="M376 107V477" stroke="black" stroke-width="1.5"/>
<path d="M380 107V477" stroke="black" stroke-width="1.5"/>
<path d="M384 107V477" stroke="black" stroke-width="1.5"/>
<path d="M388 107V477" stroke="black" stroke-width="1.5"/>
<path d="M392 107V477" stroke="black" stroke-width="1.5"/>
<path d="M396 107V477" stroke="black" stroke-width="1.5"/>
<path d="M400 107V477" stroke="black" stroke-width="1.5"/>
<path d="M404 107V477" stroke="black" stroke-width="1.5"/>
<path d="M408 107V477" stroke="black" stroke-width="1.5"/>
<path d="M412 107V477" stroke="black" stroke-width="1.5"/>
<path d="M416 107V477" stroke="black" stroke-width="1.5"/>
<path d="M420 107V477" stroke="black" stroke-width="1.5"/>
<path d="M424 107V477" stroke="black" stroke-width="1.5"/>
<path d="M428 107V477" stroke="black" stroke-width="1.5"/>
<path d="M432 107V477" stroke="black" stroke-width="1.5"/>
<path d="M436 107V477" stroke="black" stroke-width="1.5"/>
<path d="M440 107V477" stroke="black" stroke-width="1.5"/>
<path d="M444 107V477" stroke="black" stroke-width="1.5"/>
<path d="M448 107V477" stroke="black" stroke-width="1.5"/>
<path d="M452 107V477" stroke="black" stroke-width="1.5"/>
<path d="M456 107V477" stroke="black" stroke-width="1.5"/>
</mask>
<g mask="url(#mask0_5_42)">
<path d="M138 276.5C123.5 276 38 372.5 38 372.5V413C38 417.418 41.5817 421 46 421H437.5C441.918 421 445.5 417.418 445.5 413V163C445.5 163 359.5 256.5 352 259C344.5 261.5 274 256.5 261.5 259C249 261.5 233 299.4 220.5 300.5C208 301.6 175 300.5 169 300.5C163 300.5 152.5 277 138 276.5Z" fill="url(#paint0_linear_5_42)"/>
<path d="M136 276.5C121.5 276 36 372.5 36 372.5V413C36 417.418 39.5817 421 44 421H435.5C439.918 421 443.5 417.418 443.5 413V163C443.5 163 357.5 256.5 350 259C342.5 261.5 272 256.5 259.5 259C247 261.5 231 299.4 218.5 300.5C206 301.6 173 300.5 167 300.5C161 300.5 150.5 277 136 276.5Z" fill="url(#paint1_linear_5_42)"/>
</g>
<path d="M36 372.5C36 372.5 121.5 276 136 276.5C150.5 277 161 300.5 167 300.5C173 300.5 206 301.6 218.5 300.5C231 299.4 247 261.5 259.5 259C272 256.5 342.5 261.5 350 259C357.5 256.5 443.5 163 443.5 163" stroke="#978FED" stroke-width="3" stroke-linecap="round"/>
<path d="M309 263.5C312.038 263.5 314.5 261.038 314.5 258C314.5 254.962 312.038 252.5 309 252.5C305.962 252.5 303.5 254.962 303.5 258C303.5 261.038 305.962 263.5 309 263.5Z" fill="white" stroke="url(#paint2_linear_5_42)" stroke-width="3"/>
<path d="M35.1937 174.909V165.818H35.7761V174.909H35.1937ZM37.0154 168.638C36.9775 168.302 36.8213 168.041 36.5467 167.857C36.2721 167.67 35.9264 167.576 35.5097 167.576C35.2114 167.576 34.9534 167.623 34.7356 167.718C34.5178 167.81 34.3485 167.938 34.2278 168.102C34.1094 168.263 34.0502 168.446 34.0502 168.652C34.0502 168.825 34.0905 168.974 34.171 169.099C34.2538 169.225 34.3615 169.33 34.4941 169.415C34.6291 169.498 34.7735 169.568 34.9274 169.625C35.0812 169.679 35.2292 169.724 35.3712 169.76L36.0815 169.945C36.3135 170.001 36.5514 170.078 36.7953 170.175C37.0391 170.272 37.2652 170.4 37.4735 170.559C37.6819 170.718 37.8499 170.914 37.9778 171.148C38.108 171.383 38.1731 171.663 38.1731 171.99C38.1731 172.402 38.0666 172.768 37.8535 173.087C37.6428 173.407 37.3362 173.659 36.9337 173.844C36.5337 174.028 36.0495 174.121 35.4813 174.121C34.9368 174.121 34.4657 174.034 34.068 173.862C33.6703 173.689 33.3589 173.444 33.134 173.126C32.9091 172.807 32.7848 172.428 32.7612 171.99H33.862C33.8833 172.253 33.9686 172.472 34.1177 172.647C34.2692 172.82 34.4622 172.949 34.6965 173.034C34.9333 173.117 35.1925 173.158 35.4742 173.158C35.7844 173.158 36.0602 173.11 36.3016 173.013C36.5455 172.913 36.7373 172.776 36.8769 172.601C37.0166 172.423 37.0864 172.216 37.0864 171.979C37.0864 171.764 37.0249 171.588 36.9018 171.45C36.7811 171.313 36.6165 171.199 36.4082 171.109C36.2022 171.019 35.969 170.94 35.7086 170.871L34.8492 170.637C34.2668 170.478 33.8052 170.245 33.4643 169.938C33.1257 169.63 32.9565 169.223 32.9565 168.716C32.9565 168.297 33.0701 167.931 33.2974 167.619C33.5247 167.306 33.8324 167.063 34.2207 166.891C34.6089 166.715 35.0469 166.628 35.5346 166.628C36.027 166.628 36.4614 166.714 36.8379 166.887C37.2167 167.06 37.515 167.298 37.7328 167.601C37.9506 167.902 38.0642 168.247 38.0737 168.638H37.0154ZM41.6442 166.727V174H40.5433V167.828H40.5007L38.7606 168.964V167.913L40.5753 166.727H41.6442ZM45.6434 174.121C45.0824 174.118 44.603 173.97 44.2052 173.677C43.8075 173.383 43.5033 172.956 43.2926 172.395C43.0819 171.834 42.9765 171.158 42.9765 170.367C42.9765 169.579 43.0819 168.905 43.2926 168.347C43.5057 167.788 43.8111 167.362 44.2088 167.068C44.6089 166.775 45.0871 166.628 45.6434 166.628C46.1998 166.628 46.6768 166.776 47.0746 167.072C47.4723 167.365 47.7765 167.791 47.9872 168.35C48.2003 168.906 48.3068 169.579 48.3068 170.367C48.3068 171.16 48.2014 171.837 47.9907 172.398C47.78 172.957 47.4758 173.384 47.0781 173.68C46.6804 173.974 46.2022 174.121 45.6434 174.121ZM45.6434 173.173C46.1359 173.173 46.5206 172.932 46.7976 172.452C47.0769 171.971 47.2166 171.276 47.2166 170.367C47.2166 169.763 47.1527 169.253 47.0248 168.837C46.8994 168.418 46.7183 168.1 46.4815 167.885C46.2471 167.667 45.9678 167.558 45.6434 167.558C45.1534 167.558 44.7687 167.8 44.4893 168.283C44.21 168.766 44.0691 169.46 44.0667 170.367C44.0667 170.973 44.1295 171.486 44.2549 171.905C44.3828 172.321 44.5639 172.638 44.7983 172.853C45.0326 173.066 45.3144 173.173 45.6434 173.173ZM51.5985 174.121C51.0374 174.118 50.558 173.97 50.1603 173.677C49.7626 173.383 49.4584 172.956 49.2477 172.395C49.037 171.834 48.9316 171.158 48.9316 170.367C48.9316 169.579 49.037 168.905 49.2477 168.347C49.4607 167.788 49.7661 167.362 50.1639 167.068C50.564 166.775 51.0422 166.628 51.5985 166.628C52.1549 166.628 52.6319 166.776 53.0296 167.072C53.4274 167.365 53.7316 167.791 53.9423 168.35C54.1553 168.906 54.2619 169.579 54.2619 170.367C54.2619 171.16 54.1565 171.837 53.9458 172.398C53.7351 172.957 53.4309 173.384 53.0332 173.68C52.6355 173.974 52.1572 174.121 51.5985 174.121ZM51.5985 173.173C52.0909 173.173 52.4757 172.932 52.7526 172.452C53.032 171.971 53.1717 171.276 53.1717 170.367C53.1717 169.763 53.1078 169.253 52.9799 168.837C52.8544 168.418 52.6733 168.1 52.4366 167.885C52.2022 167.667 51.9229 167.558 51.5985 167.558C51.1085 167.558 50.7238 167.8 50.4444 168.283C50.165 168.766 50.0242 169.46 50.0218 170.367C50.0218 170.973 50.0846 171.486 50.21 171.905C50.3379 172.321 50.519 172.638 50.7534 172.853C50.9877 173.066 51.2694 173.173 51.5985 173.173ZM57.5536 174.121C56.9925 174.118 56.5131 173.97 56.1154 173.677C55.7177 173.383 55.4134 172.956 55.2027 172.395C54.992 171.834 54.8867 171.158 54.8867 170.367C54.8867 169.579 54.992 168.905 55.2027 168.347C55.4158 167.788 55.7212 167.362 56.1189 167.068C56.519 166.775 56.9973 166.628 57.5536 166.628C58.1099 166.628 58.587 166.776 58.9847 167.072C59.3824 167.365 59.6866 167.791 59.8973 168.35C60.1104 168.906 60.217 169.579 60.217 170.367C60.217 171.16 60.1116 171.837 59.9009 172.398C59.6902 172.957 59.386 173.384 58.9883 173.68C58.5905 173.974 58.1123 174.121 57.5536 174.121ZM57.5536 173.173C58.046 173.173 58.4307 172.932 58.7077 172.452C58.9871 171.971 59.1268 171.276 59.1268 170.367C59.1268 169.763 59.0628 169.253 58.935 168.837C58.8095 168.418 58.6284 168.1 58.3917 167.885C58.1573 167.667 57.8779 167.558 57.5536 167.558C57.0635 167.558 56.6788 167.8 56.3995 168.283C56.1201 168.766 55.9793 169.46 55.9769 170.367C55.9769 170.973 56.0396 171.486 56.1651 171.905C56.2929 172.321 56.4741 172.638 56.7084 172.853C56.9428 173.066 57.2245 173.173 57.5536 173.173Z" fill="#464646"/>
<path d="M35.1937 212.909V203.818H35.7761V212.909H35.1937ZM37.0154 206.638C36.9775 206.302 36.8213 206.041 36.5467 205.857C36.2721 205.67 35.9264 205.576 35.5097 205.576C35.2114 205.576 34.9534 205.623 34.7356 205.718C34.5178 205.81 34.3485 205.938 34.2278 206.102C34.1094 206.263 34.0502 206.446 34.0502 206.652C34.0502 206.825 34.0905 206.974 34.171 207.099C34.2538 207.225 34.3615 207.33 34.4941 207.415C34.6291 207.498 34.7735 207.568 34.9274 207.625C35.0812 207.679 35.2292 207.724 35.3712 207.76L36.0815 207.945C36.3135 208.001 36.5514 208.078 36.7953 208.175C37.0391 208.272 37.2652 208.4 37.4735 208.559C37.6819 208.718 37.8499 208.914 37.9778 209.148C38.108 209.383 38.1731 209.663 38.1731 209.99C38.1731 210.402 38.0666 210.768 37.8535 211.087C37.6428 211.407 37.3362 211.659 36.9337 211.844C36.5337 212.028 36.0495 212.121 35.4813 212.121C34.9368 212.121 34.4657 212.034 34.068 211.862C33.6703 211.689 33.3589 211.444 33.134 211.126C32.9091 210.807 32.7848 210.428 32.7612 209.99H33.862C33.8833 210.253 33.9686 210.472 34.1177 210.647C34.2692 210.82 34.4622 210.949 34.6965 211.034C34.9333 211.117 35.1925 211.158 35.4742 211.158C35.7844 211.158 36.0602 211.11 36.3016 211.013C36.5455 210.913 36.7373 210.776 36.8769 210.601C37.0166 210.423 37.0864 210.216 37.0864 209.979C37.0864 209.764 37.0249 209.588 36.9018 209.45C36.7811 209.313 36.6165 209.199 36.4082 209.109C36.2022 209.019 35.969 208.94 35.7086 208.871L34.8492 208.637C34.2668 208.478 33.8052 208.245 33.4643 207.938C33.1257 207.63 32.9565 207.223 32.9565 206.716C32.9565 206.297 33.0701 205.931 33.2974 205.619C33.5247 205.306 33.8324 205.063 34.2207 204.891C34.6089 204.715 35.0469 204.628 35.5346 204.628C36.027 204.628 36.4614 204.714 36.8379 204.887C37.2167 205.06 37.515 205.298 37.7328 205.601C37.9506 205.902 38.0642 206.247 38.0737 206.638H37.0154ZM41.2855 212.099C40.8404 212.099 40.4403 212.014 40.0852 211.844C39.7325 211.671 39.4507 211.434 39.24 211.134C39.0293 210.833 38.9169 210.49 38.9027 210.104H39.968C39.9941 210.416 40.1326 210.673 40.3835 210.874C40.6344 211.076 40.9351 211.176 41.2855 211.176C41.5648 211.176 41.8122 211.112 42.0277 210.984C42.2455 210.854 42.4159 210.675 42.539 210.448C42.6645 210.221 42.7273 209.962 42.7273 209.67C42.7273 209.375 42.6633 209.111 42.5355 208.879C42.4076 208.647 42.2313 208.464 42.0064 208.332C41.7838 208.199 41.5281 208.132 41.2393 208.129C41.0192 208.129 40.7978 208.167 40.5753 208.243C40.3527 208.319 40.1728 208.418 40.0355 208.541L39.0305 208.392L39.4389 204.727H43.4375V205.668H40.3515L40.1207 207.703H40.1633C40.3054 207.566 40.4936 207.451 40.728 207.359C40.9647 207.266 41.218 207.22 41.4879 207.22C41.9306 207.22 42.3248 207.326 42.6704 207.536C43.0184 207.747 43.2919 208.035 43.4907 208.399C43.692 208.761 43.7914 209.178 43.789 209.649C43.7914 210.12 43.6849 210.54 43.4694 210.91C43.2564 211.279 42.9604 211.57 42.5817 211.783C42.2052 211.994 41.7732 212.099 41.2855 212.099ZM47.1181 212.121C46.557 212.118 46.0776 211.97 45.6798 211.677C45.2821 211.383 44.9779 210.956 44.7672 210.395C44.5565 209.834 44.4511 209.158 44.4511 208.367C44.4511 207.579 44.5565 206.905 44.7672 206.347C44.9803 205.788 45.2857 205.362 45.6834 205.068C46.0835 204.775 46.5617 204.628 47.1181 204.628C47.6744 204.628 48.1514 204.776 48.5492 205.072C48.9469 205.365 49.2511 205.791 49.4618 206.35C49.6749 206.906 49.7814 207.579 49.7814 208.367C49.7814 209.16 49.6761 209.837 49.4654 210.398C49.2547 210.957 48.9504 211.384 48.5527 211.68C48.155 211.974 47.6768 212.121 47.1181 212.121ZM47.1181 211.173C47.6105 211.173 47.9952 210.932 48.2722 210.452C48.5515 209.971 48.6912 209.276 48.6912 208.367C48.6912 207.763 48.6273 207.253 48.4994 206.837C48.374 206.418 48.1929 206.1 47.9561 205.885C47.7217 205.667 47.4424 205.558 47.1181 205.558C46.628 205.558 46.2433 205.8 45.9639 206.283C45.6846 206.766 45.5437 207.46 45.5413 208.367C45.5413 208.973 45.6041 209.486 45.7296 209.905C45.8574 210.321 46.0385 210.638 46.2729 210.853C46.5073 211.066 46.789 211.173 47.1181 211.173ZM53.0731 212.121C52.5121 212.118 52.0326 211.97 51.6349 211.677C51.2372 211.383 50.933 210.956 50.7223 210.395C50.5116 209.834 50.4062 209.158 50.4062 208.367C50.4062 207.579 50.5116 206.905 50.7223 206.347C50.9353 205.788 51.2407 205.362 51.6385 205.068C52.0386 204.775 52.5168 204.628 53.0731 204.628C53.6295 204.628 54.1065 204.776 54.5042 205.072C54.902 205.365 55.2062 205.791 55.4169 206.35C55.6299 206.906 55.7365 207.579 55.7365 208.367C55.7365 209.16 55.6311 209.837 55.4204 210.398C55.2097 210.957 54.9055 211.384 54.5078 211.68C54.1101 211.974 53.6318 212.121 53.0731 212.121ZM53.0731 211.173C53.5656 211.173 53.9503 210.932 54.2273 210.452C54.5066 209.971 54.6463 209.276 54.6463 208.367C54.6463 207.763 54.5824 207.253 54.4545 206.837C54.329 206.418 54.1479 206.1 53.9112 205.885C53.6768 205.667 53.3975 205.558 53.0731 205.558C52.5831 205.558 52.1984 205.8 51.919 206.283C51.6397 206.766 51.4988 207.46 51.4964 208.367C51.4964 208.973 51.5592 209.486 51.6846 209.905C51.8125 210.321 51.9936 210.638 52.228 210.853C52.4623 211.066 52.7441 211.173 53.0731 211.173Z" fill="#464646"/>
<path d="M35.1937 250.909V241.818H35.7761V250.909H35.1937ZM37.0154 244.638C36.9775 244.302 36.8213 244.041 36.5467 243.857C36.2721 243.67 35.9264 243.576 35.5097 243.576C35.2114 243.576 34.9534 243.623 34.7356 243.718C34.5178 243.81 34.3485 243.938 34.2278 244.102C34.1094 244.263 34.0502 244.446 34.0502 244.652C34.0502 244.825 34.0905 244.974 34.171 245.099C34.2538 245.225 34.3615 245.33 34.4941 245.415C34.6291 245.498 34.7735 245.568 34.9274 245.625C35.0812 245.679 35.2292 245.724 35.3712 245.76L36.0815 245.945C36.3135 246.001 36.5514 246.078 36.7953 246.175C37.0391 246.272 37.2652 246.4 37.4735 246.559C37.6819 246.718 37.8499 246.914 37.9778 247.148C38.108 247.383 38.1731 247.663 38.1731 247.99C38.1731 248.402 38.0666 248.768 37.8535 249.087C37.6428 249.407 37.3362 249.659 36.9337 249.844C36.5337 250.028 36.0495 250.121 35.4813 250.121C34.9368 250.121 34.4657 250.034 34.068 249.862C33.6703 249.689 33.3589 249.444 33.134 249.126C32.9091 248.807 32.7848 248.428 32.7612 247.99H33.862C33.8833 248.253 33.9686 248.472 34.1177 248.647C34.2692 248.82 34.4622 248.949 34.6965 249.034C34.9333 249.117 35.1925 249.158 35.4742 249.158C35.7844 249.158 36.0602 249.11 36.3016 249.013C36.5455 248.913 36.7373 248.776 36.8769 248.601C37.0166 248.423 37.0864 248.216 37.0864 247.979C37.0864 247.764 37.0249 247.588 36.9018 247.45C36.7811 247.313 36.6165 247.199 36.4082 247.109C36.2022 247.019 35.969 246.94 35.7086 246.871L34.8492 246.637C34.2668 246.478 33.8052 246.245 33.4643 245.938C33.1257 245.63 32.9565 245.223 32.9565 244.716C32.9565 244.297 33.0701 243.931 33.2974 243.619C33.5247 243.306 33.8324 243.063 34.2207 242.891C34.6089 242.715 35.0469 242.628 35.5346 242.628C36.027 242.628 36.4614 242.714 36.8379 242.887C37.2167 243.06 37.515 243.298 37.7328 243.601C37.9506 243.902 38.0642 244.247 38.0737 244.638H37.0154ZM38.8849 250V249.205L41.3459 246.655C41.6086 246.378 41.8253 246.135 41.9957 245.927C42.1685 245.716 42.2976 245.516 42.3828 245.327C42.468 245.137 42.5106 244.936 42.5106 244.723C42.5106 244.482 42.4538 244.273 42.3402 244.098C42.2265 243.92 42.0715 243.784 41.875 243.69C41.6785 243.593 41.4571 243.544 41.2109 243.544C40.9505 243.544 40.7232 243.597 40.5291 243.704C40.335 243.81 40.1858 243.961 40.0817 244.155C39.9775 244.349 39.9254 244.576 39.9254 244.837H38.8778C38.8778 244.394 38.9796 244.007 39.1832 243.675C39.3868 243.344 39.6662 243.087 40.0213 242.905C40.3764 242.72 40.78 242.628 41.2322 242.628C41.6891 242.628 42.0916 242.719 42.4396 242.901C42.79 243.081 43.0634 243.327 43.2599 243.64C43.4564 243.95 43.5547 244.3 43.5547 244.691C43.5547 244.961 43.5038 245.225 43.402 245.483C43.3025 245.741 43.1285 246.029 42.8799 246.346C42.6314 246.661 42.2857 247.043 41.843 247.493L40.3977 249.006V249.059H43.6719V250H38.8849ZM47.0497 250.121C46.4886 250.118 46.0092 249.97 45.6115 249.677C45.2138 249.383 44.9095 248.956 44.6988 248.395C44.4881 247.834 44.3828 247.158 44.3828 246.367C44.3828 245.579 44.4881 244.905 44.6988 244.347C44.9119 243.788 45.2173 243.362 45.615 243.068C46.0151 242.775 46.4933 242.628 47.0497 242.628C47.606 242.628 48.0831 242.776 48.4808 243.072C48.8785 243.365 49.1827 243.791 49.3934 244.35C49.6065 244.906 49.713 245.579 49.713 246.367C49.713 247.16 49.6077 247.837 49.397 248.398C49.1863 248.957 48.8821 249.384 48.4844 249.68C48.0866 249.974 47.6084 250.121 47.0497 250.121ZM47.0497 249.173C47.5421 249.173 47.9268 248.932 48.2038 248.452C48.4832 247.971 48.6228 247.276 48.6228 246.367C48.6228 245.763 48.5589 245.253 48.4311 244.837C48.3056 244.418 48.1245 244.1 47.8878 243.885C47.6534 243.667 47.374 243.558 47.0497 243.558C46.5596 243.558 46.1749 243.8 45.8956 244.283C45.6162 244.766 45.4754 245.46 45.473 246.367C45.473 246.973 45.5357 247.486 45.6612 247.905C45.789 248.321 45.9701 248.638 46.2045 248.853C46.4389 249.066 46.7206 249.173 47.0497 249.173ZM53.0048 250.121C52.4437 250.118 51.9643 249.97 51.5666 249.677C51.1688 249.383 50.8646 248.956 50.6539 248.395C50.4432 247.834 50.3379 247.158 50.3379 246.367C50.3379 245.579 50.4432 244.905 50.6539 244.347C50.867 243.788 51.1724 243.362 51.5701 243.068C51.9702 242.775 52.4484 242.628 53.0048 242.628C53.5611 242.628 54.0382 242.776 54.4359 243.072C54.8336 243.365 55.1378 243.791 55.3485 244.35C55.5616 244.906 55.6681 245.579 55.6681 246.367C55.6681 247.16 55.5628 247.837 55.3521 248.398C55.1414 248.957 54.8372 249.384 54.4394 249.68C54.0417 249.974 53.5635 250.121 53.0048 250.121ZM53.0048 249.173C53.4972 249.173 53.8819 248.932 54.1589 248.452C54.4382 247.971 54.5779 247.276 54.5779 246.367C54.5779 245.763 54.514 245.253 54.3862 244.837C54.2607 244.418 54.0796 244.1 53.8428 243.885C53.6085 243.667 53.3291 243.558 53.0048 243.558C52.5147 243.558 52.13 243.8 51.8507 244.283C51.5713 244.766 51.4304 245.46 51.4281 246.367C51.4281 246.973 51.4908 247.486 51.6163 247.905C51.7441 248.321 51.9252 248.638 52.1596 248.853C52.394 249.066 52.6757 249.173 53.0048 249.173Z" fill="#464646"/>
<path d="M35.1937 288.909V279.818H35.7761V288.909H35.1937ZM37.0154 282.638C36.9775 282.302 36.8213 282.041 36.5467 281.857C36.2721 281.67 35.9264 281.576 35.5097 281.576C35.2114 281.576 34.9534 281.623 34.7356 281.718C34.5178 281.81 34.3485 281.938 34.2278 282.102C34.1094 282.263 34.0502 282.446 34.0502 282.652C34.0502 282.825 34.0905 282.974 34.171 283.099C34.2538 283.225 34.3615 283.33 34.4941 283.415C34.6291 283.498 34.7735 283.568 34.9274 283.625C35.0812 283.679 35.2292 283.724 35.3712 283.76L36.0815 283.945C36.3135 284.001 36.5514 284.078 36.7953 284.175C37.0391 284.272 37.2652 284.4 37.4735 284.559C37.6819 284.718 37.8499 284.914 37.9778 285.148C38.108 285.383 38.1731 285.663 38.1731 285.99C38.1731 286.402 38.0666 286.768 37.8535 287.087C37.6428 287.407 37.3362 287.659 36.9337 287.844C36.5337 288.028 36.0495 288.121 35.4813 288.121C34.9368 288.121 34.4657 288.034 34.068 287.862C33.6703 287.689 33.3589 287.444 33.134 287.126C32.9091 286.807 32.7848 286.428 32.7612 285.99H33.862C33.8833 286.253 33.9686 286.472 34.1177 286.647C34.2692 286.82 34.4622 286.949 34.6965 287.034C34.9333 287.117 35.1925 287.158 35.4742 287.158C35.7844 287.158 36.0602 287.11 36.3016 287.013C36.5455 286.913 36.7373 286.776 36.8769 286.601C37.0166 286.423 37.0864 286.216 37.0864 285.979C37.0864 285.764 37.0249 285.588 36.9018 285.45C36.7811 285.313 36.6165 285.199 36.4082 285.109C36.2022 285.019 35.969 284.94 35.7086 284.871L34.8492 284.637C34.2668 284.478 33.8052 284.245 33.4643 283.938C33.1257 283.63 32.9565 283.223 32.9565 282.716C32.9565 282.297 33.0701 281.931 33.2974 281.619C33.5247 281.306 33.8324 281.063 34.2207 280.891C34.6089 280.715 35.0469 280.628 35.5346 280.628C36.027 280.628 36.4614 280.714 36.8379 280.887C37.2167 281.06 37.515 281.298 37.7328 281.601C37.9506 281.902 38.0642 282.247 38.0737 282.638H37.0154ZM41.6442 280.727V288H40.5433V281.828H40.5007L38.7606 282.964V281.913L40.5753 280.727H41.6442ZM45.6434 288.121C45.0824 288.118 44.603 287.97 44.2052 287.677C43.8075 287.383 43.5033 286.956 43.2926 286.395C43.0819 285.834 42.9765 285.158 42.9765 284.367C42.9765 283.579 43.0819 282.905 43.2926 282.347C43.5057 281.788 43.8111 281.362 44.2088 281.068C44.6089 280.775 45.0871 280.628 45.6434 280.628C46.1998 280.628 46.6768 280.776 47.0746 281.072C47.4723 281.365 47.7765 281.791 47.9872 282.35C48.2003 282.906 48.3068 283.579 48.3068 284.367C48.3068 285.16 48.2014 285.837 47.9907 286.398C47.78 286.957 47.4758 287.384 47.0781 287.68C46.6804 287.974 46.2022 288.121 45.6434 288.121ZM45.6434 287.173C46.1359 287.173 46.5206 286.932 46.7976 286.452C47.0769 285.971 47.2166 285.276 47.2166 284.367C47.2166 283.763 47.1527 283.253 47.0248 282.837C46.8994 282.418 46.7183 282.1 46.4815 281.885C46.2471 281.667 45.9678 281.558 45.6434 281.558C45.1534 281.558 44.7687 281.8 44.4893 282.283C44.21 282.766 44.0691 283.46 44.0667 284.367C44.0667 284.973 44.1295 285.486 44.2549 285.905C44.3828 286.321 44.5639 286.638 44.7983 286.853C45.0326 287.066 45.3144 287.173 45.6434 287.173ZM51.5985 288.121C51.0374 288.118 50.558 287.97 50.1603 287.677C49.7626 287.383 49.4584 286.956 49.2477 286.395C49.037 285.834 48.9316 285.158 48.9316 284.367C48.9316 283.579 49.037 282.905 49.2477 282.347C49.4607 281.788 49.7661 281.362 50.1639 281.068C50.564 280.775 51.0422 280.628 51.5985 280.628C52.1549 280.628 52.6319 280.776 53.0296 281.072C53.4274 281.365 53.7316 281.791 53.9423 282.35C54.1553 282.906 54.2619 283.579 54.2619 284.367C54.2619 285.16 54.1565 285.837 53.9458 286.398C53.7351 286.957 53.4309 287.384 53.0332 287.68C52.6355 287.974 52.1572 288.121 51.5985 288.121ZM51.5985 287.173C52.0909 287.173 52.4757 286.932 52.7526 286.452C53.032 285.971 53.1717 285.276 53.1717 284.367C53.1717 283.763 53.1078 283.253 52.9799 282.837C52.8544 282.418 52.6733 282.1 52.4366 281.885C52.2022 281.667 51.9229 281.558 51.5985 281.558C51.1085 281.558 50.7238 281.8 50.4444 282.283C50.165 282.766 50.0242 283.46 50.0218 284.367C50.0218 284.973 50.0846 285.486 50.21 285.905C50.3379 286.321 50.519 286.638 50.7534 286.853C50.9877 287.066 51.2694 287.173 51.5985 287.173Z" fill="#464646"/>
<path d="M65.5 169.75H442" stroke="#F2F2F2" stroke-width="0.5" stroke-linecap="round" stroke-dasharray="10 8"/>
<path d="M65.5 207.75H442" stroke="#F2F2F2" stroke-width="0.5" stroke-linecap="round" stroke-dasharray="10 8"/>
<path d="M65.5 245.75H442" stroke="#F2F2F2" stroke-width="0.5" stroke-linecap="round" stroke-dasharray="10 8"/>
<path d="M65.5 283.75H442" stroke="#F2F2F2" stroke-width="0.5" stroke-linecap="round" stroke-dasharray="10 8"/>
</g>
</g>
<defs>
<filter id="filter0_d_5_42" x="0" y="0" width="475.5" height="455" filterUnits="userSpaceOnUse" color-interpolation-filters="sRGB">
<feFlood flood-opacity="0" result="BackgroundImageFix"/>
<feColorMatrix in="SourceAlpha" type="matrix" values="0 0 0 0 0 0 0 0 0 0 0 0 0 0 0 0 0 0 127 0" result="hardAlpha"/>
<feOffset dy="2"/>
<feGaussianBlur stdDeviation="2"/>
<feComposite in2="hardAlpha" operator="out"/>
<feColorMatrix type="matrix" values="0 0 0 0 0 0 0 0 0 0 0 0 0 0 0 0 0 0 0.04 0"/>
<feBlend mode="normal" in2="BackgroundImageFix" result="effect1_dropShadow_5_42"/>
<feBlend mode="normal" in="SourceGraphic" in2="effect1_dropShadow_5_42" result="shape"/>
</filter>
<linearGradient id="paint0_linear_5_42" x1="296" y1="225.5" x2="439.5" y2="457" gradientUnits="userSpaceOnUse">
<stop stop-color="#E6E5FB"/>
<stop offset="1" stop-color="#FEFDFF"/>
</linearGradient>
<linearGradient id="paint1_linear_5_42" x1="294" y1="225.5" x2="437.5" y2="457" gradientUnits="userSpaceOnUse">
<stop stop-color="#E6E5FB"/>
<stop offset="1" stop-color="#FEFDFF"/>
</linearGradient>
<linearGradient id="paint2_linear_5_42" x1="309" y1="254" x2="309" y2="372" gradientUnits="userSpaceOnUse">
<stop stop-color="#978FED"/>
<stop offset="1" stop-color="#978FED" stop-opacity="0"/>
</linearGradient>
<clipPath id="clip0_5_42">
<rect width="476" height="455" fill="white"/>
</clipPath>
</defs>
</svg>
