<svg width="71" height="36" viewBox="0 0 71 36" fill="none" xmlns="http://www.w3.org/2000/svg">
<path fill-rule="evenodd" clip-rule="evenodd" d="M5.468 7.75998V36H0V3.19998C0.00563011 1.9933 0.689582 0.892393 1.76888 0.352743C2.84818 -0.186907 4.13928 -0.0735249 5.108 0.645979L31.08 20.2C31.8779 20.8009 32.348 21.7411 32.35 22.74V36H26.884V23.878L5.468 7.75998ZM64.696 7.75998V36H70.164V3.19998C70.1554 1.99474 69.4703 0.896577 68.3916 0.358916C67.3129 -0.178746 66.0236 -0.0646941 65.056 0.653979L39.084 20.2C38.2861 20.8009 37.816 21.7411 37.814 22.74V36H43.28V23.878L64.696 7.75998Z" fill="black"/>
</svg>
