<svg width="40" height="40" viewBox="0 0 40 40" fill="none" xmlns="http://www.w3.org/2000/svg">
<path d="M18.2999 10.3167L12.1165 4.13333C11.9999 4.01667 11.8499 3.91667 11.6832 3.85C11.6665 3.85 11.6499 3.85 11.6332 3.83333C11.4999 3.78333 11.3665 3.75 11.2165 3.75C10.8832 3.75 10.5665 3.88333 10.3332 4.11667L4.11653 10.3167C3.6332 10.8 3.6332 11.6 4.11653 12.0833C4.59986 12.5667 5.39986 12.5667 5.88319 12.0833L9.96653 8V35C9.96653 35.6833 10.5332 36.25 11.2165 36.25C11.8999 36.25 12.4665 35.6833 12.4665 35V8.01667L16.5332 12.0833C16.7832 12.3333 17.0999 12.45 17.4165 12.45C17.7332 12.45 18.0499 12.3333 18.2999 12.0833C18.7832 11.6 18.7832 10.8167 18.2999 10.3167Z" fill="white"/>
<path d="M35.8834 27.9167C35.4 27.4333 34.6 27.4333 34.1167 27.9167L30.0334 32V5C30.0334 4.31667 29.4667 3.75 28.7834 3.75C28.1 3.75 27.5334 4.31667 27.5334 5V31.9833L23.4667 27.9167C22.9834 27.4333 22.1834 27.4333 21.7 27.9167C21.2167 28.4 21.2167 29.2 21.7 29.6833L27.8834 35.8667C28 35.9833 28.15 36.0833 28.3167 36.15C28.3334 36.15 28.35 36.15 28.3667 36.1667C28.5 36.2167 28.65 36.25 28.8 36.25C29.1334 36.25 29.45 36.1167 29.6834 35.8833L35.8834 29.6833C36.3667 29.1833 36.3667 28.4 35.8834 27.9167Z" fill="white"/>
</svg>
