<svg width="82" height="82" viewBox="0 0 82 82" fill="none" xmlns="http://www.w3.org/2000/svg">
<path fill-rule="evenodd" clip-rule="evenodd" d="M41 82C18.45 82 0 63.5504 0 40.7958C0.205 18.2463 18.45 -0.203304 41.205 0.00169195C63.755 0.206688 82 18.4513 82 41.4108C81.795 63.7554 63.55 82 41 82Z" fill="#EDF0F4"/>
<path fill-rule="evenodd" clip-rule="evenodd" d="M25.5751 24.5575C24.8302 20.671 27.8098 17.0835 31.6834 17.0835C35.11 17.0835 37.9407 19.9236 37.9407 23.3616V31.1345C38.8346 31.1345 39.7285 30.9851 40.6224 30.9851C41.5163 30.9851 42.2613 30.9851 43.1552 31.1345V23.3616C43.1552 19.9236 45.9859 17.0835 49.4125 17.0835C53.2861 17.0835 56.2657 20.671 55.6698 24.5575L54.031 33.6757C59.8413 36.2168 64.3109 40.7012 64.3109 46.2319V49.67C64.3109 54.3038 61.3312 58.1903 57.0106 60.7314C52.6901 63.422 47.0287 64.9168 40.6224 64.9168C34.2161 64.9168 28.5548 63.422 24.2342 60.7314C20.0627 58.1903 17.083 54.3038 17.083 49.67V46.2319C17.083 40.7012 21.4035 36.2168 27.2139 33.6757L25.5751 24.5575ZM51.7966 34.8713L53.7334 24.1088C54.1803 21.4182 52.2436 18.8771 49.4129 18.8771C47.0291 18.8771 45.0923 20.8203 45.0923 23.212V33.0776C44.4964 32.9281 43.7515 32.9281 43.1555 32.9281C42.2616 32.9281 41.5167 32.7786 40.6228 32.7786C39.7289 32.7786 38.835 32.7786 37.9411 32.9281C37.3452 32.9281 36.6003 33.0776 36.0043 33.0776V23.3614C36.0043 20.9698 34.0675 19.0265 31.6838 19.0265C29.0021 19.0265 26.9163 21.5677 27.5123 24.2583L29.449 35.0208C23.1917 37.4125 19.0202 41.5979 19.0202 46.3812V49.8193C19.0202 57.1437 28.7041 63.1229 40.6228 63.1229C52.5415 63.1229 62.2255 57.1437 62.2255 49.8193V46.3812C62.3744 41.4484 58.2029 37.263 51.7966 34.8713Z" fill="#633001"/>
<path d="M62.3445 49.6283C62.3445 57.0455 52.6068 63.1003 40.622 63.1003C28.6371 63.1003 18.8994 57.0455 18.8994 49.6283V46.1467H62.4944V49.6283H62.3445Z" fill="#FEDC90"/>
<path fill-rule="evenodd" clip-rule="evenodd" d="M27.3177 24.12C26.7164 21.4354 28.821 18.8999 31.5269 18.8999C33.9322 18.8999 35.8864 20.8388 35.8864 23.2251V33.0687C37.3897 32.9196 38.893 32.7704 40.5466 32.7704C42.0498 32.7704 43.5531 32.9196 45.0564 33.0687V23.2251C45.0564 20.8388 47.0106 18.8999 49.4159 18.8999C52.1218 18.8999 54.2263 21.4354 53.7754 24.12L51.8211 34.8584C58.1349 37.2448 62.4944 41.4208 62.4944 46.1935C62.4944 53.5016 52.7231 59.4674 40.6969 59.4674C28.6707 59.4674 18.8994 53.5016 18.8994 46.1935C18.8994 41.4208 23.1086 37.2448 29.4223 34.8584L27.3177 24.12Z" fill="#D1884F"/>
<path d="M34.6422 45.5411C34.6422 47.5089 33.5826 49.174 32.2203 49.174C30.8579 49.174 29.7983 47.5089 29.7983 45.5411C29.7983 43.5733 30.8579 41.9082 32.2203 41.9082C33.5826 41.9082 34.6422 43.5733 34.6422 45.5411Z" fill="#633001"/>
<path d="M51.5958 45.5411C51.5958 47.5089 50.5362 49.174 49.1739 49.174C47.8116 49.174 46.752 47.5089 46.752 45.5411C46.752 43.5733 47.8116 41.9082 49.1739 41.9082C50.5362 41.9082 51.5958 43.5733 51.5958 45.5411Z" fill="#633001"/>
</svg>
