<svg width="570" height="490" viewBox="0 0 570 490" fill="none" xmlns="http://www.w3.org/2000/svg">
<path fill-rule="evenodd" clip-rule="evenodd" d="M506.071 321.741L559.993 344.519C571.548 350.214 571.548 358.756 556.142 367.297C552.29 375.839 540.735 375.839 529.18 372.992L475.258 350.214L486.813 381.534C490.664 392.923 479.11 401.465 467.555 401.465C459.852 401.465 452.148 395.77 448.297 390.075L436.742 353.061C432.89 338.825 417.484 324.588 398.226 316.047C378.968 307.505 355.858 307.505 336.6 316.047L332.749 318.894C313.491 327.436 301.936 341.672 301.936 358.756C301.936 375.839 313.491 392.923 328.897 404.312L363.562 429.937C375.116 438.479 367.413 455.563 348.155 455.563C340.452 455.563 336.6 452.715 332.749 449.868L301.936 427.09V475.493C301.936 484.035 294.233 489.73 282.678 489.73C271.123 489.73 263.42 484.035 263.42 475.493V427.09L232.607 449.868C224.904 455.563 213.349 455.563 205.646 449.868C197.943 441.326 197.943 432.784 205.646 427.09L236.459 404.312C255.717 392.923 263.42 375.839 263.42 358.756C263.42 341.672 251.865 327.436 232.607 318.894L228.755 316.047C209.497 307.505 186.388 307.505 167.13 316.047C147.872 324.588 132.465 335.977 128.614 353.061L117.059 390.075C117.059 398.617 105.504 404.312 93.9494 401.465C82.3946 398.617 74.6914 390.075 78.543 381.534L90.0978 350.214C37.4445 372.108 32.5902 375.296 27.4882 375.76C26.6188 375.839 25.7422 375.839 24.6206 375.839C1.511 375.839 -6.1922 355.908 13.0658 347.366L66.9882 324.588L24.6206 316.047C13.0658 313.199 5.3626 304.657 9.2142 296.116C9.2142 287.574 20.769 281.879 32.3238 284.727L78.543 290.421C101.653 296.116 124.762 293.268 144.02 284.727C163.278 276.185 174.833 261.948 174.833 244.865V239.17C174.833 222.087 163.278 207.85 144.02 199.309C124.762 190.767 101.653 187.92 78.543 193.614C30.907 203.675 28.3594 204.848 25.7573 204.985C25.414 205.003 25.0696 205.003 24.6206 205.003C16.9174 205.003 9.2142 199.309 5.3626 193.614C1.511 185.072 9.2142 176.53 20.769 173.683L63.1366 165.141L9.2142 142.363C1.511 139.516 -2.3406 128.127 1.511 122.432C9.2142 113.891 20.769 111.043 32.3238 116.738L86.2462 139.516L74.6914 108.196C70.8398 99.6543 78.543 91.1125 86.2462 88.2652C97.801 85.418 109.356 91.1125 113.207 99.6543L132.465 136.669C136.317 150.905 151.723 165.141 170.981 173.683C190.239 182.225 213.349 182.225 232.607 173.683L236.459 170.836C255.717 162.294 267.272 148.058 267.272 130.974C267.272 113.891 255.717 96.807 240.31 85.418L221.052 62.6399C213.349 54.0981 213.349 45.5563 221.052 39.8617C228.755 34.1672 240.31 34.1672 248.014 39.8617L278.826 62.6399V14.2363C278.826 5.69453 286.53 0 298.084 0C309.639 0 317.342 5.69453 317.342 14.2363V59.7926L348.155 37.0145C355.858 31.3199 367.413 31.3199 375.116 37.0145C382.82 45.5563 382.82 54.0981 375.116 59.7926L340.452 85.418C321.194 96.807 313.491 113.891 313.491 130.974C313.491 148.058 325.046 162.294 344.304 170.836L348.155 173.683C367.413 182.225 390.523 182.225 409.781 173.683C429.039 165.141 444.445 153.752 448.297 136.669L459.852 99.6543C459.852 91.1125 471.406 85.418 482.961 88.2652C494.516 91.1125 502.219 99.6543 498.368 108.196L486.813 139.516L540.735 116.738C548.438 113.891 563.845 113.891 567.696 122.432C571.548 128.127 571.548 139.516 559.993 142.363L509.922 165.141L552.29 173.683C563.845 176.53 571.548 185.072 567.696 193.614C563.845 199.309 556.142 205.003 548.438 205.003C547.989 205.003 547.645 205.003 547.302 204.985C544.7 204.848 542.152 203.675 494.516 193.614C471.406 187.92 448.297 190.767 429.039 199.309C409.781 207.85 398.226 222.087 398.226 239.17V244.865C398.226 261.948 409.781 276.185 429.039 284.727C448.297 293.268 471.406 296.116 494.516 290.421L540.735 281.879C548.438 279.032 559.993 284.727 563.845 293.268C567.696 301.81 559.993 310.352 548.438 313.199L506.071 321.741ZM317.341 287.574C340.45 279.032 352.005 261.949 352.005 244.865C352.005 224.934 340.45 207.85 317.341 202.156C294.231 193.614 271.121 193.614 248.012 202.156C224.902 210.698 213.347 227.781 213.347 244.865C213.347 261.949 228.754 279.032 248.012 287.574C271.121 296.116 294.231 296.116 317.341 287.574Z" fill="white" fill-opacity="0.54"/>
</svg>
