<svg width="89" height="89" viewBox="0 0 89 89" fill="none" xmlns="http://www.w3.org/2000/svg">
<path d="M84.7556 54.175L84.7046 54.3796C79.0068 76.7638 56.2819 90.3606 33.8412 84.7653C11.3422 79.1544 -2.35471 56.3579 3.25863 33.8536L3.25875 33.8531C8.8672 11.3444 31.6623 -2.35322 54.1638 3.25756L54.1639 3.25759C76.6709 8.86842 90.3672 31.6675 84.7556 54.175Z" fill="url(#paint0_linear_32_85)" stroke="#FFD9EC" stroke-width="4"/>
<path d="M37.0657 27.1829C36.4698 27.0978 36.4415 27.0694 36.7252 27.041C37.2643 26.9559 38.5127 27.0694 39.3922 27.268C41.4351 27.7504 43.2793 28.9988 45.237 31.1835L45.7477 31.7793L46.4854 31.6658C49.6348 31.1551 52.8693 31.5523 55.5647 32.8007C56.3024 33.1412 57.4656 33.8221 57.6075 33.9924C57.6642 34.0491 57.7494 34.4179 57.8061 34.7868C58.0047 36.1203 57.9196 37.1134 57.494 37.8794C57.267 38.305 57.267 38.4185 57.4089 38.7873C57.5224 39.0711 57.8629 39.2697 58.175 39.2697C58.8559 39.2697 59.5652 38.1915 59.9057 36.6878L60.0476 36.0919L60.3029 36.3757C61.7499 37.9929 62.8848 40.2344 63.0551 41.8232L63.1118 42.2488L62.8565 41.88C62.4309 41.2274 62.0336 40.8018 61.4946 40.433C60.5299 39.7804 59.5085 39.5818 56.8131 39.4399C54.373 39.2981 52.9827 39.0994 51.6209 38.6455C49.2943 37.8794 48.1026 36.8864 45.3505 33.2263C44.1305 31.6091 43.3644 30.7295 42.5983 29.9918C40.9243 28.3746 39.2504 27.5234 37.0657 27.1829Z" fill="#FF007A"/>
<path d="M58.2031 30.7862C58.2598 29.708 58.4017 28.9987 58.7138 28.3461C58.8273 28.0908 58.9408 27.8638 58.9691 27.8638C58.9975 27.8638 58.9408 28.0624 58.8556 28.2894C58.6287 28.9136 58.6003 29.7931 58.7421 30.7862C58.9408 32.0629 59.0259 32.2332 60.3878 33.6234C61.012 34.276 61.7497 35.0988 62.0334 35.4393L62.5157 36.0635L62.0334 35.6095C61.4376 35.0421 60.0757 33.9639 59.7636 33.822C59.565 33.7085 59.5366 33.7085 59.3947 33.8504C59.2812 33.9639 59.2529 34.1341 59.2529 34.9569C59.2245 36.2337 59.0542 37.0282 58.6287 37.851C58.4017 38.2766 58.3733 38.1914 58.5719 37.7091C58.7138 37.3403 58.7421 37.17 58.7421 35.95C58.7421 33.4816 58.4584 32.8857 56.7277 31.8927C56.3021 31.6373 55.5644 31.2685 55.1388 31.0699C54.6848 30.8713 54.3444 30.701 54.3727 30.701C54.4295 30.6443 56.1035 31.1266 56.7561 31.4104C57.7491 31.8076 57.9193 31.8359 58.0328 31.8076C58.1179 31.7225 58.1747 31.4955 58.2031 30.7862Z" fill="#FF007A"/>
<path d="M38.2286 35.0138C37.0369 33.3682 36.2709 30.8147 36.4411 28.9137L36.4978 28.3179L36.7816 28.3746C37.2923 28.4597 38.1718 28.8002 38.5974 29.0556C39.7323 29.7365 40.243 30.6728 40.7254 32.9994C40.8672 33.6803 41.0658 34.4747 41.151 34.7301C41.2928 35.1557 41.8319 36.1487 42.2859 36.7729C42.598 37.2269 42.3994 37.4539 41.69 37.3971C40.6119 37.2836 39.1649 36.2906 38.2286 35.0138Z" fill="#FF007A"/>
<path d="M56.7562 47.3559C51.1384 45.0861 49.1523 43.1284 49.1523 39.8088C49.1523 39.3264 49.1807 38.9292 49.1807 38.9292C49.2091 38.9292 49.4077 39.0994 49.6631 39.298C50.798 40.206 52.0747 40.6032 55.6213 41.1139C57.6925 41.426 58.8842 41.653 59.9623 42.0218C63.3954 43.1567 65.5234 45.4833 66.0341 48.6327C66.176 49.5406 66.0908 51.2713 65.8639 52.1793C65.6653 52.8886 65.0978 54.1937 64.9559 54.2221C64.9276 54.2221 64.8708 54.0802 64.8708 53.8532C64.8141 52.6616 64.2183 51.5267 63.2252 50.6471C62.0336 49.6257 60.5014 48.8596 56.7562 47.3559Z" fill="#FF007A"/>
<path d="M52.7842 48.2923C52.7274 47.8667 52.5855 47.3276 52.5004 47.1006L52.3586 46.675L52.6139 46.9871C52.9828 47.4127 53.2665 47.9234 53.5218 48.6328C53.7205 49.1718 53.7205 49.3421 53.7205 50.2216C53.7205 51.0728 53.6921 51.2714 53.5218 51.7538C53.2381 52.5198 52.8976 53.0589 52.3302 53.6547C51.3088 54.7045 49.9753 55.272 48.0743 55.5273C47.7338 55.5557 46.7691 55.6408 45.918 55.6976C43.79 55.8111 42.3714 56.038 41.0946 56.492C40.9244 56.5488 40.7541 56.6055 40.7258 56.5771C40.669 56.5204 41.5486 56.0097 42.2579 55.6692C43.2509 55.1869 44.2723 54.9315 46.5138 54.5343C47.6203 54.3641 48.7552 54.1371 49.039 54.0236C51.8479 53.144 53.2381 50.9593 52.7842 48.2923Z" fill="#FF007A"/>
<path d="M55.3657 52.8601C54.628 51.2428 54.4578 49.7107 54.855 48.2637C54.9118 48.1218 54.9685 47.98 55.0253 47.98C55.082 47.98 55.2522 48.0651 55.4225 48.1786C55.763 48.4056 56.4723 48.8028 58.2881 49.7958C60.5863 51.0442 61.8915 52.0089 62.7994 53.1154C63.5938 54.0801 64.0762 55.1866 64.3031 56.5485C64.445 57.3146 64.3599 59.1588 64.1613 59.9249C63.5371 62.3366 62.1184 64.2659 60.0472 65.3725C59.7351 65.5427 59.4798 65.6562 59.4514 65.6562C59.423 65.6562 59.5365 65.3725 59.7068 65.032C60.3877 63.585 60.4728 62.1947 59.9621 60.6342C59.65 59.6695 58.9974 58.5063 57.6923 56.5485C56.1318 54.2787 55.763 53.6829 55.3657 52.8601Z" fill="#FF007A"/>
<path d="M34.2282 61.5423C36.3277 59.7832 38.9096 58.5348 41.293 58.1376C42.3144 57.9674 44.0167 58.0241 44.953 58.2795C46.4568 58.6767 47.8187 59.5279 48.528 60.5776C49.2089 61.5991 49.521 62.4786 49.8331 64.4363C49.9466 65.2024 50.0885 65.9968 50.1169 66.1671C50.3438 67.1885 50.7978 67.9829 51.3653 68.4085C52.2448 69.0611 53.7769 69.0895 55.2807 68.522C55.5361 68.4369 55.763 68.3518 55.763 68.3801C55.8198 68.4369 55.0537 68.9476 54.543 69.2029C53.8337 69.5718 53.2662 69.6853 52.5002 69.6853C51.1383 69.6853 49.975 68.976 49.0387 67.5573C48.8401 67.2736 48.4429 66.4508 48.1024 65.6847C47.1094 63.3865 46.5987 62.7056 45.4354 61.9395C44.414 61.287 43.1088 61.1451 42.1158 61.6274C40.8106 62.2516 40.4701 63.9256 41.3781 64.947C41.7469 65.3726 42.4279 65.7131 42.9953 65.7982C44.0451 65.9401 44.953 65.1173 44.953 64.0675C44.953 63.3865 44.6977 62.9893 44.0167 62.6772C43.1088 62.28 42.1158 62.734 42.1441 63.6135C42.1441 63.9824 42.3144 64.2094 42.6832 64.3796C42.9102 64.4931 42.9102 64.4931 42.74 64.4647C41.9172 64.2945 41.7185 63.2731 42.3711 62.6205C43.1656 61.826 44.8395 62.1665 45.407 63.2731C45.634 63.727 45.6624 64.6349 45.4637 65.2024C44.9814 66.4508 43.6195 67.1034 42.2293 66.7345C41.293 66.4792 40.8957 66.2238 39.7608 65.0605C37.7747 63.0177 37.0087 62.6205 34.1714 62.1949L33.6323 62.1098L34.2282 61.5423Z" fill="#FF007A"/>
<path fill-rule="evenodd" clip-rule="evenodd" d="M19.3043 15.8907C25.9152 23.9202 36.101 36.4041 36.6117 37.0851C37.0373 37.6525 36.867 38.1916 36.1577 38.5888C35.7605 38.8158 34.9377 39.0428 34.5405 39.0428C34.0865 39.0428 33.5474 38.8158 33.1786 38.447C32.9232 38.1916 31.8167 36.5744 29.3199 32.6873C27.4189 29.7082 25.8017 27.2398 25.7733 27.2114C25.6598 27.1546 25.6598 27.1546 29.1213 33.3399C31.306 37.227 32.0153 38.6172 32.0153 38.7875C32.0153 39.1563 31.9018 39.3549 31.4478 39.8656C30.6818 40.7168 30.3413 41.6815 30.0859 43.6959C29.8022 45.9374 29.0362 47.5263 26.8515 50.2217C25.5747 51.8105 25.3761 52.0943 25.064 52.7468C24.6668 53.5413 24.5533 53.9952 24.4965 55.0166C24.4398 56.0948 24.5533 56.7758 24.8654 57.7972C25.1491 58.7051 25.4612 59.3009 26.2273 60.4642C26.8798 61.4856 27.277 62.2517 27.277 62.5354C27.277 62.7624 27.3338 62.7624 28.3552 62.5354C30.7953 61.968 32.8097 61.0033 33.9163 59.8116C34.5972 59.0739 34.7674 58.6767 34.7674 57.6553C34.7674 57.0027 34.7391 56.8609 34.5688 56.4637C34.2851 55.8395 33.746 55.3287 32.5827 54.5343C31.0506 53.4845 30.398 52.6333 30.2278 51.4984C30.0859 50.5338 30.2562 49.8812 31.1074 48.0937C31.9869 46.2495 32.2139 45.4834 32.3558 43.6108C32.4409 42.4192 32.5827 41.9368 32.9232 41.568C33.2921 41.1708 33.6042 41.0289 34.4837 40.9154C35.9307 40.7168 36.867 40.348 37.6047 39.6386C38.2573 39.0428 38.541 38.447 38.5694 37.5674L38.5978 36.9149L38.2289 36.5176C36.8954 34.9855 18.4248 14.6707 18.3396 14.6707C18.3113 14.6707 18.7652 15.2097 19.3043 15.8907ZM28.0147 56.2366C28.3268 55.6975 28.1565 55.0166 27.6458 54.6761C27.1635 54.364 26.4258 54.5059 26.4258 54.9315C26.4258 55.0449 26.4825 55.1584 26.6528 55.2152C26.9081 55.357 26.9365 55.4989 26.7379 55.811C26.5393 56.1231 26.5393 56.4068 26.7946 56.6054C27.1919 56.9175 27.7309 56.7473 28.0147 56.2366Z" fill="#FF007A"/>
<path fill-rule="evenodd" clip-rule="evenodd" d="M39.506 41.3125C38.825 41.5111 38.1725 42.2488 37.9739 42.9865C37.8604 43.4405 37.9171 44.2633 38.1157 44.5186C38.4278 44.9159 38.7115 45.0293 39.506 45.0293C41.0665 45.0293 42.4 44.3484 42.5419 43.5256C42.6837 42.8446 42.0879 41.9083 41.2651 41.4828C40.8395 41.2558 39.9599 41.1707 39.506 41.3125ZM41.3216 42.7313C41.5486 42.3908 41.4635 42.0219 41.0379 41.7666C40.2718 41.2843 39.1085 41.6815 39.1085 42.4192C39.1085 42.788 39.7044 43.1852 40.2718 43.1852C40.6407 43.1852 41.1514 42.9582 41.3216 42.7313Z" fill="#FF007A"/>
<defs>
<linearGradient id="paint0_linear_32_85" x1="0" y1="0" x2="0" y2="88.0235" gradientUnits="userSpaceOnUse">
<stop stop-color="#FEF3F9"/>
<stop offset="1" stop-color="#FDE5F2"/>
</linearGradient>
</defs>
</svg>
