<svg width="34" height="32" viewBox="0 0 34 32" fill="none" xmlns="http://www.w3.org/2000/svg">
<path d="M17 32C26.3888 32 34 24.8366 34 16C34 7.16344 26.3888 0 17 0C7.61116 0 0 7.16344 0 16C0 24.8366 7.61116 32 17 32Z" fill="#201A2D"/>
<path d="M24.2444 9.5857L23.6069 10.1857C25.128 11.7514 25.9716 13.7961 25.9716 15.9177C25.9716 18.0393 25.128 20.084 23.6069 21.6497L24.2444 22.2497C25.9361 20.5227 26.8753 18.2597 26.8753 15.9107C26.8753 13.5617 25.9361 11.2987 24.2444 9.5717V9.5857V9.5857ZM10.8377 9.6377C12.5012 8.206 14.6738 7.41205 16.928 7.41205C19.1821 7.41205 21.3547 8.206 23.0182 9.6377L23.6557 9.0377C21.8208 7.4455 19.4163 6.56152 16.9205 6.56152C14.4247 6.56152 12.0203 7.4455 10.1854 9.0377L10.8377 9.6377V9.6377ZM10.2406 21.6557C8.72122 20.0904 7.87876 18.0469 7.87876 15.9267C7.87876 13.8065 8.72122 11.763 10.2406 10.1977L9.6031 9.5977C7.91139 11.3247 6.97217 13.5877 6.97217 15.9367C6.97217 18.2857 7.91139 20.5487 9.6031 22.2757L10.2406 21.6557ZM23.0097 22.2097C21.3462 23.6414 19.1736 24.4353 16.9195 24.4353C14.6653 24.4353 12.4927 23.6414 10.8292 22.2097L10.1917 22.8097C12.0267 24.4019 14.4311 25.2859 16.9269 25.2859C19.4227 25.2859 21.8271 24.4019 23.6621 22.8097L23.0097 22.2097ZM20.9464 13.9237C20.8189 12.6717 19.6714 12.2517 18.22 12.1237V10.3997H17.098V12.0917H16.2012V10.3997H15.0877V12.1357H12.8119V13.2657C12.8119 13.2657 13.6406 13.2517 13.6279 13.2657C13.7773 13.2502 13.9273 13.29 14.0462 13.3765C14.1651 13.4631 14.2437 13.5897 14.2654 13.7297V18.4817C14.2622 18.5311 14.2485 18.5793 14.2251 18.6237C14.2018 18.668 14.1692 18.7074 14.1294 18.7397C14.0903 18.7726 14.0445 18.7977 13.9948 18.8135C13.9452 18.8293 13.8926 18.8355 13.8404 18.8317C13.8552 18.8437 13.0244 18.8317 13.0244 18.8317L12.8119 20.0937H15.0665V21.8577H16.1885V20.1197H17.0852V21.8497H18.2094V20.1057C20.1049 19.9977 21.4266 19.5577 21.5924 17.8877C21.7262 16.5437 21.0547 15.9437 19.9816 15.7017C20.634 15.3997 21.0377 14.8397 20.9464 13.9237V13.9237ZM19.3739 17.6797C19.3739 18.9917 16.9854 18.8417 16.2246 18.8417V16.5137C16.9854 16.5157 19.3739 16.3097 19.3739 17.6797ZM18.8532 14.3997C18.8532 15.5997 16.86 15.4537 16.2267 15.4537V13.3377C16.86 13.3377 18.8532 13.1497 18.8532 14.3997Z" fill="white"/>
<path d="M16.9193 26.852C10.5081 26.851 5.3125 21.959 5.3125 15.925C5.3125 9.892 10.5103 5 16.9203 5C23.3314 5 28.5292 9.89 28.5303 15.924C28.5305 17.3592 28.2304 18.7803 27.647 20.1063C27.0636 21.4322 26.2083 22.637 25.1301 23.6518C24.0519 24.6667 22.7718 25.4716 21.3629 26.0207C19.9541 26.5698 18.4441 26.8523 16.9193 26.852V26.852ZM16.9193 5.852C11.0128 5.856 6.22837 10.365 6.2305 15.924C6.23262 21.483 11.0224 25.988 16.9278 25.988C22.8342 25.988 27.6229 21.483 27.625 15.924C27.6256 14.6008 27.349 13.2906 26.8111 12.0681C26.2733 10.8456 25.4846 9.73486 24.4903 8.79943C23.4961 7.864 22.3156 7.12221 21.0165 6.61647C19.7174 6.11072 18.3251 5.85095 16.9193 5.852V5.852Z" fill="white"/>
</svg>
