<svg width="40" height="40" viewBox="0 0 40 40" fill="none" xmlns="http://www.w3.org/2000/svg">
<path d="M30.8334 37.9167C26.9334 37.9167 23.75 34.7333 23.75 30.8333V30C23.75 29.3167 24.3167 28.75 25 28.75C25.6834 28.75 26.25 29.3167 26.25 30V30.8333C26.25 33.3667 28.3 35.4167 30.8334 35.4167C33.3667 35.4167 35.4167 33.3667 35.4167 30.8333C35.4167 28.3 33.3667 26.25 30.8334 26.25H3.33337C2.65004 26.25 2.08337 25.6833 2.08337 25C2.08337 24.3167 2.65004 23.75 3.33337 23.75H30.8334C34.7334 23.75 37.9167 26.9333 37.9167 30.8333C37.9167 34.7333 34.7334 37.9167 30.8334 37.9167Z" fill="white"/>
<path opacity="0.4" d="M30.8334 21.25H3.33337C2.65004 21.25 2.08337 20.6833 2.08337 20C2.08337 19.3167 2.65004 18.75 3.33337 18.75H30.8334C33.3667 18.75 35.4167 16.7 35.4167 14.1667C35.4167 11.6333 33.3667 9.58334 30.8334 9.58334C28.3 9.58334 26.25 11.6333 26.25 14.1667V15C26.25 15.6833 25.6834 16.25 25 16.25C24.3167 16.25 23.75 15.6833 23.75 15V14.1667C23.75 10.2667 26.9334 7.08334 30.8334 7.08334C34.7334 7.08334 37.9167 10.2667 37.9167 14.1667C37.9167 18.0667 34.7334 21.25 30.8334 21.25Z" fill="white"/>
<path d="M15.5167 16.25H3.33337C2.65004 16.25 2.08337 15.6833 2.08337 15C2.08337 14.3167 2.65004 13.75 3.33337 13.75H15.5167C17.3 13.75 18.75 12.3 18.75 10.5167C18.75 8.73333 17.3 7.28333 15.5167 7.28333C13.7334 7.28333 12.2834 8.73333 12.2834 10.5167V11.15C12.2834 11.8333 11.7167 12.4 11.0334 12.4C10.35 12.4 9.78337 11.85 9.78337 11.15V10.5167C9.78337 7.35 12.35 4.78333 15.5167 4.78333C18.6834 4.78333 21.25 7.35 21.25 10.5167C21.25 13.6833 18.6834 16.25 15.5167 16.25Z" fill="white"/>
</svg>
