<svg width="24" height="23" viewBox="0 0 24 23" fill="none" xmlns="http://www.w3.org/2000/svg">
<path d="M17.0185 0.0688477H7.27665C3.04511 0.0688477 0.522461 2.46333 0.522461 6.47988V15.7157C0.522461 19.7433 3.04511 22.1378 7.27665 22.1378H17.0069C21.2384 22.1378 23.7611 19.7433 23.7611 15.7268V6.47988C23.7727 2.46333 21.25 0.0688477 17.0185 0.0688477ZM16.8674 10.1875L12.7637 14.0826C12.5893 14.2482 12.3684 14.3254 12.1476 14.3254C11.9267 14.3254 11.7058 14.2482 11.5314 14.0826L7.42778 10.1875C7.09065 9.86747 7.09065 9.33781 7.42778 9.01781C7.76491 8.69781 8.32291 8.69781 8.66004 9.01781L12.1476 12.3282L15.6351 9.01781C15.9722 8.69781 16.5302 8.69781 16.8674 9.01781C17.2045 9.33781 17.2045 9.85643 16.8674 10.1875Z" fill="#010B13"/>
</svg>
