<svg width="10" height="10" viewBox="0 0 10 10" fill="none" xmlns="http://www.w3.org/2000/svg">
<path d="M7.09854 0H2.90645C1.08554 0 0 1.085 0 2.905V7.09C0 8.915 1.08554 10 2.90645 10H7.09353C8.91444 10 9.99998 8.915 9.99998 7.095V2.905C10.005 1.085 8.91944 0 7.09854 0ZM7.0335 4.585L5.26762 6.35C5.19259 6.425 5.09754 6.46 5.00249 6.46C4.90745 6.46 4.8124 6.425 4.73736 6.35L2.97148 4.585C2.82641 4.44 2.82641 4.2 2.97148 4.055C3.11655 3.91 3.35667 3.91 3.50174 4.055C3.50174 4.055 4.17386 5.555 5.00249 5.555C5.83113 5.555 6.50324 4.055 6.50324 4.055C6.64831 3.91 6.88843 3.91 7.0335 4.055C7.17858 4.2 7.17858 4.435 7.0335 4.585Z" fill="white"/>
</svg>
