<svg width="40" height="40" viewBox="0 0 40 40" fill="none" xmlns="http://www.w3.org/2000/svg">
<path d="M33.2833 14.5833H28.3833C26.2667 14.5833 25 13.3167 25 11.2V6.3C25 4.18333 26.2667 2.91666 28.3833 2.91666H33.2833C35.4 2.91666 36.6667 4.18333 36.6667 6.3V11.2C36.6667 13.3167 35.4 14.5833 33.2833 14.5833ZM33.65 9.06666C33.45 8.86666 33.1833 8.76666 32.9167 8.76666C32.65 8.76666 32.3833 8.86666 32.1833 9.06666L31.8833 9.36666V5.63333C31.8833 5.05 31.4167 4.58333 30.8333 4.58333C30.25 4.58333 29.7833 5.05 29.7833 5.63333V9.36666L29.4833 9.06666C29.0833 8.66666 28.4167 8.66666 28.0167 9.06666C27.6167 9.46666 27.6167 10.1333 28.0167 10.5333L30.1 12.6167C30.1833 12.7 30.3 12.7667 30.4167 12.8167C30.45 12.8333 30.4833 12.8333 30.5167 12.85C30.6 12.8833 30.6833 12.9 30.7833 12.9C30.8167 12.9 30.85 12.9 30.8833 12.9C31 12.9 31.1 12.8833 31.2167 12.8333C31.2333 12.8333 31.2333 12.8333 31.25 12.8333C31.3667 12.7833 31.4667 12.7167 31.55 12.6333C31.5667 12.6167 31.5667 12.6167 31.5833 12.6167L33.6667 10.5333C34.0667 10.1333 34.0667 9.46666 33.65 9.06666Z" fill="white"/>
<path d="M3.33334 19.1V27.4333C3.33334 31.25 6.41668 34.3333 10.2333 34.3333H29.75C33.5667 34.3333 36.6667 31.2333 36.6667 27.4167V19.1C36.6667 17.9833 35.7667 17.0833 34.65 17.0833H5.35001C4.23334 17.0833 3.33334 17.9833 3.33334 19.1ZM13.3333 28.75H10C9.31668 28.75 8.75001 28.1833 8.75001 27.5C8.75001 26.8167 9.31668 26.25 10 26.25H13.3333C14.0167 26.25 14.5833 26.8167 14.5833 27.5C14.5833 28.1833 14.0167 28.75 13.3333 28.75ZM24.1667 28.75H17.5C16.8167 28.75 16.25 28.1833 16.25 27.5C16.25 26.8167 16.8167 26.25 17.5 26.25H24.1667C24.85 26.25 25.4167 26.8167 25.4167 27.5C25.4167 28.1833 24.85 28.75 24.1667 28.75Z" fill="white"/>
<path d="M22.5 7.68333V12.5667C22.5 13.6833 21.6 14.5833 20.4833 14.5833H5.35001C4.21668 14.5833 3.33334 13.65 3.33334 12.5333C3.35001 10.65 4.10001 8.93333 5.35001 7.68333C6.60001 6.43333 8.33334 5.66666 10.2333 5.66666H20.4833C21.6 5.66666 22.5 6.56666 22.5 7.68333Z" fill="white"/>
</svg>
