<svg width="8" height="10" viewBox="0 0 8 10" fill="none" xmlns="http://www.w3.org/2000/svg">
<circle cx="4" cy="6" r="4" fill="white"/>
<path d="M4.096 3.36C4.64 3.36 5.07467 3.50933 5.4 3.808C5.73067 4.10667 5.896 4.51467 5.896 5.032C5.896 5.57067 5.72533 5.976 5.384 6.248C5.04267 6.52 4.58933 6.656 4.024 6.656L3.992 7.288H3.2L3.16 6.032H3.424C3.94133 6.032 4.336 5.96267 4.608 5.824C4.88533 5.68533 5.024 5.42133 5.024 5.032C5.024 4.74933 4.94133 4.528 4.776 4.368C4.616 4.208 4.392 4.128 4.104 4.128C3.816 4.128 3.58933 4.20533 3.424 4.36C3.25867 4.51467 3.176 4.73067 3.176 5.008H2.32C2.32 4.688 2.392 4.40267 2.536 4.152C2.68 3.90133 2.88533 3.70667 3.152 3.568C3.424 3.42933 3.73867 3.36 4.096 3.36ZM3.584 9.056C3.41867 9.056 3.28 9 3.168 8.888C3.056 8.776 3 8.63733 3 8.472C3 8.30667 3.056 8.168 3.168 8.056C3.28 7.944 3.41867 7.888 3.584 7.888C3.744 7.888 3.88 7.944 3.992 8.056C4.104 8.168 4.16 8.30667 4.16 8.472C4.16 8.63733 4.104 8.776 3.992 8.888C3.88 9 3.744 9.056 3.584 9.056Z" fill="black"/>
</svg>
