<svg width="45" height="45" viewBox="0 0 45 45" fill="none" xmlns="http://www.w3.org/2000/svg">
<path d="M18.3761 13.554L22.4453 17.4836M22.4453 17.4836L26.3748 13.4144M22.4453 17.4836L22.2533 6.4853C22.2147 4.2765 23.9741 2.45466 26.1829 2.4161L38.181 2.20667C40.3898 2.16812 42.2117 3.92745 42.2502 6.13626L42.4422 17.1346M26.689 31.4117L22.6198 27.4821M22.6198 27.4821L18.6902 31.5513M22.6198 27.4821L22.8118 38.4804C22.8503 40.6892 21.0909 42.5111 18.8822 42.5496L6.88401 42.7591C4.67521 42.7976 2.85336 41.0382 2.81481 38.8295L2.62283 27.8312M31.4613 18.3264L27.5318 22.3956M27.5318 22.3956L31.601 26.3252M27.5318 22.3956L38.5301 22.2036C40.7389 22.1651 42.5607 23.9244 42.5993 26.1332L42.8087 38.1314C42.8473 40.3401 41.0879 42.162 38.8791 42.2006L27.8808 42.3926M13.6037 26.6393L17.5333 22.5701M17.5333 22.5701L13.4641 18.6405M17.5333 22.5701L6.53496 22.7621C4.32616 22.8007 2.50432 21.0413 2.46576 18.8325L2.25633 6.83435C2.21778 4.62555 3.97711 2.80371 6.18591 2.76515L17.1842 2.57317" stroke="#010B13" stroke-width="4" stroke-linecap="round" stroke-linejoin="round"/>
</svg>
